<?xml version="1.0" encoding="UTF-8"?>
<svg id="_레이어_1" data-name="레이어 1" xmlns="http://www.w3.org/2000/svg" viewBox="0 0 654.39 128.68">
  <defs>
    <style>
      .cls-1 {
        fill: #eba514;
      }

      .cls-1, .cls-2 {
        stroke-width: 0px;
      }

      .cls-2 {
        fill: #040000;
      }
    </style>
  </defs>
  <g>
    <path class="cls-2" d="m229.76,31.7v2.83h-44.39v-2.83h16.33v-5.05c0-1.48-.61-2.24-1.83-2.28h-.61v-1.72h4.11c2.22,0,3.3,1.06,3.22,3.17v5.89h23.17Zm-5.61-20.22v6.72c0,3.96-.67,6.94-2,8.94-.96,1.41-2.41,2.59-4.33,3.56l-.61-.67c1.22-2.44,1.91-5.42,2.05-8.94v-6.78h-28.16v-2.83h33.05Zm-15.94,28.66c1.7,0,3.63.26,5.78.78,3,.7,5.31,1.98,6.94,3.83,1.33,1.52,2.04,3.11,2.11,4.78.04,1.67-.59,3.32-1.89,4.94-2.82,3.59-7.37,5.39-13.67,5.39-2.82,0-5.46-.48-7.94-1.44-4.7-1.82-7.09-4.57-7.16-8.28-.04-1.7.57-3.33,1.83-4.89,2.7-3.41,7.37-5.11,14-5.11Zm-.56,2.83c-1.63,0-3.18.22-4.67.67-3.81,1.15-5.72,3.31-5.72,6.47,0,1.34.48,2.57,1.44,3.68,1.81,2.16,4.76,3.23,8.83,3.23,2.22.04,4.17-.32,5.83-1.06,3.18-1.41,4.78-3.44,4.78-6.08,0-1.19-.48-2.36-1.44-3.51-1.85-2.23-4.87-3.36-9.06-3.4Z"/>
    <path class="cls-2" d="m280.86,34.42v2.83h-19.78v8.33c0,4.59-1.24,8.02-3.72,10.28h-1.17v-18.61h-19.72v-2.83h44.39Zm-39.66-22.94h34.89v2.83h-15.05v.5c0,1.59.61,3.02,1.83,4.28,2.56,2.67,7.94,5.55,16.17,8.67l-.78,2.11c-7.22-1.11-13.24-3.57-18.05-7.39-.44-.33-.89-.69-1.33-1.06-4.93,4.33-11.54,7.15-19.83,8.44l-.78-2.11,1.44-.56c7.37-2.67,12.15-5.2,14.33-7.61,1.41-1.52,2.11-3.09,2.11-4.72v-.56h-14.94v-2.83Z"/>
    <path class="cls-2" d="m305.47,23.03c.41.67.83,1.33,1.28,2,2.33,3.67,6.46,8.61,12.39,14.83l-1.39,1.72c-4.85-2.96-9.37-7.28-13.55-12.94-.33-.48-.69-.98-1.05-1.5-4.22,6.74-9.33,11.78-15.33,15.11l-1.22-1.78c3-2.63,5.5-5.22,7.5-7.78,2.15-2.78,3.94-5.67,5.39-8.67,1.78-3.74,2.65-6.33,2.61-7.78-.04-.81-.5-1.26-1.39-1.33h-.78v-2h5.89c.81,0,1.31.02,1.5.06.78.11,1.2.52,1.28,1.22.08.33-.04.87-.33,1.61-.22.56-.52,1.33-.89,2.33l-1.89,4.89Zm16.16-13.83h5.17c1.59,0,2.35.94,2.28,2.83v28.05c0,7.59-1.24,12.85-3.72,15.78h-1.17V13.2c0-1.37-.52-2.13-1.55-2.28h-1v-1.72Z"/>
    <path class="cls-2" d="m197.32,102.29v2.83h-44.39v-2.83h19.78v-6.67h4.89v6.67h19.72Zm-4.39-11.83v2.33c-5.81,2.3-11.81,3.44-18,3.44-9.07,0-14.24-2.44-15.5-7.33v-5c0-1.67-.76-2.87-2.28-3.61v-1.11h5.22c1.3,0,1.95.89,1.95,2.67v6.39c.81,3.26,4.59,4.89,11.33,4.89,5.78,0,11.54-.89,17.28-2.67Zm-17.78,19.39c1.93,0,3.98.22,6.17.67,2.96.67,5.24,1.83,6.83,3.5,1.41,1.48,2.13,3.04,2.17,4.67,0,1.48-.52,2.91-1.55,4.28-2.63,3.44-7.3,5.17-14,5.17-2.41,0-4.69-.31-6.83-.94-2.56-.74-4.52-1.83-5.89-3.28-1.44-1.52-2.17-3.15-2.17-4.89-.04-1.7.61-3.31,1.94-4.83,2.56-2.89,7-4.33,13.33-4.33Zm-.11,2.83c-1.59,0-3.13.21-4.61.61-1.78.45-3.19,1.23-4.22,2.34-.96,1.12-1.44,2.25-1.44,3.4,0,1.23.48,2.34,1.44,3.35,1.74,1.93,4.65,2.9,8.72,2.9,2.18.04,4.11-.28,5.78-.95,3.11-1.26,4.67-3.09,4.67-5.47,0-1.08-.46-2.14-1.39-3.18-1.81-2.01-4.8-3.01-8.94-3.01Z"/>
    <path class="cls-2" d="m248.43,104.51v2.83h-44.39v-2.83h19.72v-2.56c0-1.44-.56-2.2-1.67-2.28h-.61v-1.72h3.94c2.26,0,3.33,1.06,3.22,3.17v3.39h19.78Zm-24.55-18.61h-14.67v-2.83h14.67v-1.11c0-1.37-.46-2.11-1.39-2.22h-.61v-1.39h4.5c.59,0,1,.02,1.22.06.85.15,1.24.91,1.17,2.28v2.39h14.67v2.83h-14.67v.33c0,.89.3,1.63.89,2.22,1.96,2.07,7.63,4.74,17,8l-.83,2.11c-7.15-1.04-13.33-3.22-18.55-6.55-.3-.19-.59-.37-.89-.56-5.33,3.89-11.96,6.26-19.89,7.11l-.5-2c7.26-1.7,12.5-4.02,15.72-6.94,1.37-1.26,2.09-2.5,2.17-3.72Zm18.89,35.55v2.33c-5.15,2.7-10.63,4.04-16.44,4-8.48,0-13.55-2.52-15.22-7.55v-3.39c0-1.67-.76-2.87-2.28-3.61v-1.11h5.22c1.3,0,1.94.89,1.94,2.67v4.28c.59,3.74,4.13,5.61,10.61,5.61,4.81,0,10.2-1.07,16.16-3.22Z"/>
    <path class="cls-2" d="m273.09,88.85c.48.74.94,1.46,1.39,2.17,2.48,3.78,6.11,7.96,10.89,12.55l-1.44,1.89c-4.7-3-8.69-6.67-11.94-11-.41-.52-.8-1.04-1.17-1.56-4.22,6-9.15,10.76-14.78,14.28l-1.05-1.72c2.63-2.59,4.96-5.18,7-7.78,2.59-3.33,4.5-6.35,5.72-9.06,1.15-2.63,1.68-4.41,1.61-5.33-.07-.67-.52-1.04-1.33-1.11h-1v-2.06h6.22c1.55,0,2.39.54,2.5,1.61.04.56-.46,2.06-1.5,4.5l-1.11,2.61Zm24.61,32.61v2.33c-6.11,2.7-11.54,4.04-16.28,4-4.85,0-8.72-1.15-11.61-3.44-1.41-1.11-2.39-2.48-2.94-4.11v-3.72c0-1.67-.76-2.87-2.28-3.61v-1.11h5.28c1.3,0,1.93.89,1.89,2.67v4.61c.59,3.63,3.79,5.5,9.61,5.61,4.59.11,10.04-.96,16.33-3.22Zm-8.5-44h5.17c1.52,0,2.28.94,2.28,2.83v23.5c0,5.37-1.05,9.3-3.17,11.78h-1.72v-34.11c0-1.37-.52-2.13-1.56-2.28h-1v-1.72Z"/>
    <path class="cls-2" d="m340.25,79.18v-1.72h5.17c1.52,0,2.28.94,2.28,2.83v9.11h6.33v2.83h-6.33v4.22c0,4.96-1.05,8.7-3.17,11.22h-1.72v-2.56h-35.11v-2.83h14.61v-3.78h4.89v3.78h15.61v-20.83c0-1.37-.52-2.13-1.55-2.28h-1Zm-9.55,3.94c.18.08.37.17.55.28,3.07,1.67,4.63,3.98,4.67,6.91.04,1.75-.54,3.36-1.72,4.85-2.18,2.79-5.46,4.16-9.83,4.12-1.74,0-3.43-.28-5.06-.84-4.22-1.52-6.33-4.12-6.33-7.8,0-3.12,1.78-5.63,5.33-7.53h-7.83v-2.83h12v-.5c0-1.04-.41-1.61-1.22-1.72l-.56.06v-1.39h4.83c1,0,1.52.48,1.55,1.44v2.11h11.33v2.83h-7.72Zm-14.67,28.89v-2.83h31.11v9.94h-24.16v1.17c0,3.11,3.15,4.67,9.44,4.67,4.7,0,10.04-.76,16-2.28v2.05c-6.48,2.26-12.31,3.39-17.5,3.39-8.07,0-12.35-2.24-12.83-6.72v-1.39c0-1.33-.76-2.2-2.28-2.61v-1.11h26.44v-4.28h-26.22Zm8.61-27.94c-1.08,0-2.11.2-3.11.61-2.63,1.04-3.94,2.93-3.94,5.67,0,1.26.37,2.39,1.11,3.39,1.3,1.81,3.22,2.72,5.78,2.72,1.15,0,2.18-.2,3.11-.61,2.48-1.18,3.72-3.11,3.72-5.78,0-1.15-.33-2.22-1-3.22-1.22-1.85-3.11-2.78-5.67-2.78Z"/>
    <path class="cls-2" d="m360.36,83.13v-2.83h24.83v12h-18.78v4.44c0,3,2.18,4.54,6.56,4.61,5,.11,11.03-.67,18.11-2.33v2.11c-7.37,2.56-13.89,3.78-19.55,3.67-3.67-.07-6.28-.78-7.83-2.11-1.37-1.15-2.09-2.94-2.17-5.39v-3.44c0-1.07-.59-2-1.78-2.78-.19-.11-.35-.22-.5-.33v-1.28h21.05v-6.33h-19.94Zm33.27,29.5h-27.94v-2.83h32.83v6.39c0,6.07-1.24,10.24-3.72,12.5h-1.17v-16.05Zm-2.22-35.16h5.11c1.55,0,2.33.94,2.33,2.83v16.66c0,4.96-1.06,8.7-3.17,11.22h-1.72v-9.72h-9.72v-2.83h9.72v-8.17h-9.72v-2.83h9.72v-3.17c0-1.37-.52-2.13-1.56-2.28h-1v-1.72Z"/>
    <path class="cls-2" d="m452.85,102.79v2.83h-44.39v-2.83h44.39Zm-39.33-4.55v-2.83h7.5v-10.39h4.89v10.39h8.44c1.11-1.22,1.91-2.2,2.39-2.94.7-1.11,1.07-2.67,1.11-4.67v-2.78h4.89v2.78c0,1.52-.19,2.67-.56,3.44-.52,1.22-1.83,2.61-3.94,4.17h10.89v2.83h-35.61Zm32.39,11v9.89h-25.11v1.61c0,3.11,3.04,4.65,9.11,4.61,4.85,0,10.46-.74,16.83-2.22v2.05c-5.89,2.18-12.07,3.26-18.55,3.22-7.89-.08-11.98-2.44-12.28-7.11v-.94c0-1.63-.76-2.61-2.28-2.94v-1.11h27.39v-4.22h-26.61v-2.83h31.5Zm2.33-30.05v2.83h-33.89v-2.83h33.89Z"/>
    <path class="cls-2" d="m463.63,84.02v-2.83h23.11v14.05h-17.61v6.33c0,3.19,2.44,4.81,7.33,4.89,4.41.11,10.02-.67,16.83-2.33v2.11c-7.19,2.33-13.43,3.48-18.72,3.44-3.59-.04-6.2-.65-7.83-1.83-1.48-1.11-2.31-3.02-2.5-5.72v-5.5c0-1.22-.76-2.17-2.28-2.83v-1.39h19.89v-8.39h-18.22Zm30-6.55h5.17c1.59,0,2.35.94,2.28,2.83v28.05c0,7.59-1.24,12.85-3.72,15.78h-1.17v-29h-10.06v-2.83h10.06v-10.83c0-1.37-.52-2.13-1.56-2.28h-1v-1.72Z"/>
    <path class="cls-2" d="m555.07,110.46v2.83h-44.39v-2.83h44.39Zm-19-24.66c.33.3.65.59.94.89,4,3.56,9.96,7.55,17.89,12l-1,2.17c-6.41-1.96-12.76-5.37-19.05-10.22-.52-.41-1.02-.8-1.5-1.17-5.67,5.37-12.68,9.17-21.05,11.39l-.55-2.06c3.89-1.81,7.29-3.72,10.22-5.72,3.33-2.33,5.81-4.63,7.44-6.89,1-1.37,1.46-2.33,1.39-2.89-.04-.78-.59-1.22-1.67-1.33h-.83v-2h5.61c.85,0,1.65.04,2.39.11,1.52.15,2.3.72,2.33,1.72,0,.48-.43,1.24-1.28,2.28l-1.28,1.72Z"/>
    <path class="cls-2" d="m579.68,91.29c.41.67.83,1.33,1.28,2,2.33,3.67,6.46,8.61,12.39,14.83l-1.39,1.72c-4.85-2.96-9.37-7.28-13.55-12.94-.33-.48-.69-.98-1.05-1.5-4.22,6.74-9.33,11.78-15.33,15.11l-1.22-1.78c3-2.63,5.5-5.22,7.5-7.78,2.15-2.78,3.94-5.67,5.39-8.67,1.78-3.74,2.65-6.33,2.61-7.78-.04-.81-.5-1.26-1.39-1.33h-.78v-2h5.89c.81,0,1.31.02,1.5.06.78.11,1.2.52,1.28,1.22.07.33-.04.87-.33,1.61-.22.56-.52,1.33-.89,2.33l-1.89,4.89Zm16.11-13.83h5.17c1.52,0,2.28.94,2.28,2.83v10.33h6.33v2.83h-6.33v14.89c0,7.59-1.24,12.85-3.72,15.78h-1.17v-42.66c0-1.37-.52-2.13-1.55-2.28h-1v-1.72Z"/>
    <path class="cls-2" d="m627.62,78.9c1.48,0,3.04.26,4.67.78,2.37.7,4.28,2.02,5.72,3.94,1.52,1.96,2.28,4.17,2.28,6.61,0,2.22-.63,4.28-1.89,6.17-2.48,3.74-6.11,5.61-10.89,5.61-2.19,0-4.2-.44-6.06-1.33-4.44-2.15-6.65-5.5-6.61-10.06,0-2.33.76-4.55,2.28-6.67,2.52-3.37,6.02-5.06,10.5-5.06Zm.17,2.83c-1.37,0-2.7.35-4,1.06-2.7,1.49-4.06,4.03-4.06,7.64,0,1.63.37,3.14,1.11,4.51,1.55,2.82,3.81,4.24,6.78,4.24,1.44,0,2.76-.39,3.94-1.17,2.55-1.71,3.83-4.35,3.83-7.91,0-1.45-.26-2.77-.78-3.96-1.37-2.93-3.65-4.4-6.83-4.4Zm21.39,32.55v-2.22c0-1.67-.67-2.74-2-3.22v-1.11h3.94c2.07,0,3.06,1,2.94,3v8.55c0,1.85-.63,3.39-1.89,4.61-1.19,1.11-2.93,2.04-5.22,2.78-3,.96-6.11,1.44-9.33,1.44-5.7,0-9.79-1.26-12.28-3.78-1.15-1.19-1.78-2.8-1.89-4.83v-5.83c0-2.3-.65-3.7-1.95-4.22v-1.17h4.33c1.7,0,2.54,1,2.5,3v3h20.83Zm0,2.83h-20.83v2.74c0,3.62,3.02,5.43,9.05,5.43,5.11,0,8.67-.99,10.67-2.96.67-.63,1.04-1.59,1.11-2.85v-2.35Zm-2.22-39.66h5.11c1.55,0,2.33.94,2.33,2.83v14.67c0,5-1.06,8.74-3.17,11.22h-1.72v-13.78h-9.72v-2.83h9.72v-8.11c0-1.37-.52-2.13-1.56-2.28h-1v-1.72Z"/>
  </g>
  <path class="cls-1" d="m133.88,23.27c0-3.05.03-6.11-.02-9.16-.03-1.86-.09-3.72-.58-5.53-.52-1.91-1.28-3.68-2.87-4.97-1.23-1-2.67-1.52-4.23-1.6-2.27-.12-4.55-.14-6.82-.2-1.17-.03-2.35-.07-3.52-.07-5.82-.03-11.64-.07-17.45-.08-1.47,0-2.95.06-4.42.08-1.95.03-3.9.03-5.84.1-1.21.04-2.43.11-3.59.53-2.18.77-3.67,2.27-4.48,4.4-.89,2.37-1.07,4.83-.49,7.3.8,3.44,3.04,5.4,6.46,6.09,1.63.32,3.27.35,4.91.35,7.64.02,15.28.05,22.92.07.17,0,.34,0,.59,0v.57c0,2.85,0,5.71,0,8.56.02,6.81.06,13.62.08,20.42.03,6.52.06,13.04.07,19.56,0,2.31-.05,4.61-.08,6.92-.02,1.4-.05,2.81-.09,4.21-.05,1.85-.06,3.69-.18,5.54-.28,4.17-1.71,7.92-4.19,11.27-2.59,3.51-5.76,6.32-9.69,8.26-2.67,1.32-5.49,2.12-8.43,2.53-1.85.26-3.71.32-5.57.21-2.85-.16-5.6-.82-8.22-1.99-.4-.18-.78-.38-1.17-.57h-.01c-3.89-1.95-7.08-4.68-9.41-8.33-.01-.02-.03-.04-.04-.06-.16-.24-.53-.78-1.12-1.42,1.88-.73,3.75-1.48,5.55-2.35,5.36-2.59,9.98-6.22,13.99-10.61,5.87-6.43,10.09-13.77,12.19-22.26.58-2.36.97-4.75,1.11-7.18.13-2.3.13-4.58-.4-6.82-1.02-4.32-3.78-6.85-8.1-7.61-1.59-.28-3.24-.31-4.86-.39-1.28-.06-2.57-.01-3.86-.03-2.97-.03-5.93-.07-8.9-.09-3.7-.03-7.41-.07-11.11-.07-2.38,0-4.77.04-7.15.09-1.71.04-3.42.05-5.12.2-3.38.29-6.4,1.4-8.58,4.18-1.21,1.54-1.71,3.35-1.88,5.29-.13,1.57,0,3.1.53,4.58,1.11,3.1,3.38,4.98,6.43,6.01,1.6.54,3.24.85,4.93.86,7.86.03,15.73.05,23.59.08.21,0,.43,0,.72,0-.07.23-.09.38-.15.51-3.09,6.62-7.7,11.78-14.36,14.98-2.73,1.31-5.59,2.24-8.61,2.58-4.51.52-8.84-.23-12.99-2.02-4.25-1.83-8.02-4.35-11.1-7.83-3.32-3.76-5.39-8.13-6.49-13-.46-2.04-.69-4.11-.65-6.2.09-4.25,1.14-8.27,2.96-12.1,2.78-5.84,7.05-10.21,12.88-13.03,2.58-1.24,5.29-2.05,8.14-2.33,1.87-.19,3.74-.33,5.61-.47,2.45-.19,4.9-.34,7.35-.56,1.49-.13,3.02-.21,4.46-.58,4.05-1.06,6.59-3.65,7.15-7.86.42-3.17-.13-6.2-2.19-8.79-1.41-1.78-3.32-2.67-5.52-3.04C58.86-.14,55.72.03,52.58.01c-.94,0-1.88.08-2.82.08-12.49-.02-23.43,4.21-32.95,12.19-5.07,4.25-9.12,9.37-12.06,15.33-1.98,4.01-3.31,8.23-3.98,12.65-.32,2.09-.64,4.19-.73,6.29-.1,2.19,0,4.39.16,6.58.12,1.79.36,3.58.67,5.36.92,5.26,2.63,10.26,5.21,14.95,2.88,5.24,6.6,9.81,11.14,13.7,4.63,3.97,9.88,6.87,15.61,8.91.85.3,1.69.64,2.49,1.03,4.29,1.09,9.07,1.76,14.3,1.74-.85,3.32-.2,6.89,1.71,9.74.02.02.03.05.05.07,1.9,2.81,4.07,5.31,6.48,7.55h0s.01,0,.01.01c0,0,.02.02.02.02h0c2.75,2.54,5.81,4.73,9.18,6.58,4.4,2.41,9.09,3.99,14.04,4.78,1.37.22,2.75.3,4.13.46.29.03.56.13.85.2h5.16c.36-.07.71-.17,1.08-.2,3.88-.31,7.67-1.08,11.35-2.36,4.81-1.68,9.17-4.16,13.1-7.4,5.27-4.34,9.43-9.55,12.35-15.73,1.88-3.97,3.19-8.12,3.9-12.46.28-1.75.51-3.51.78-5.26.03-.22.13-.43.2-.64V23.88c-.04-.2-.12-.41-.12-.61Z"/>
  <path class="cls-1" d="m170.68,14.07h-8.52v-7.6c0-2.51-2.06-4.57-4.57-4.57h-1.16c-2.51,0-4.57,2.06-4.57,4.57v7.6h-8.52c-2.4,0-4.37,1.96-4.37,4.36v1.37c0,2.4,1.96,4.36,4.37,4.36h8.52v7.6c0,2.51,2.06,4.57,4.57,4.57h1.16c2.51,0,4.57-2.06,4.57-4.57v-7.6h8.52c2.4,0,4.37-1.96,4.37-4.36v-1.37c0-2.4-1.96-4.36-4.37-4.36Z"/>
</svg>