<?xml version="1.0" encoding="UTF-8"?>
<svg id="Layer_1" data-name="Layer 1" xmlns="http://www.w3.org/2000/svg" viewBox="0 0 251.84 36.18">
  <defs>
    <style>
      .cls-1 {
        fill: #f6ab00;
      }

      .cls-2 {
        fill: #ef7e00;
      }

      .cls-3 {
        fill: #c85912;
      }

      .cls-4 {
        fill: #0a0707;
      }

      .cls-5 {
        fill: #82a9da;
      }
    </style>
  </defs>
  <polygon class="cls-1" points="28.76 32.09 33.29 35.77 33.29 19.82 28.76 19.82 28.76 32.09"/>
  <path class="cls-1" d="m4.88,18.64v8.71l6.65.7v-9.4c0-1.08.15-2.14.42-3.14l-6.38-1.89c-.45,1.6-.69,3.28-.69,5.02"/>
  <path class="cls-1" d="m23.45,6.73c2.73,0,5.25.92,7.26,2.47l4.17-5.19C31.73,1.55,27.76.07,23.45.07c-1.74,0-3.41.24-5.01.69l1.88,6.38c1-.27,2.04-.42,3.12-.42"/>
  <path class="cls-2" d="m25.22,13.63c.49.17.95.42,1.36.72l2.84-3.53c-.86-.66-1.84-1.18-2.89-1.52l-1.3,4.34Z"/>
  <polygon class="cls-2" points="13.61 35.77 18.13 32.09 18.13 22.23 13.61 22.23 13.61 35.77"/>
  <path class="cls-2" d="m6.12,11.96l6.24,2.31c.34-.86.77-1.67,1.29-2.41l-5.39-3.91c-.87,1.23-1.6,2.58-2.15,4.01"/>
  <path class="cls-2" d="m42.02,27.35v-8.71c0-1.74-.25-3.42-.69-5.02l-6.38,1.89c.27,1,.42,2.05.42,3.13v9.4l6.66-.7Z"/>
  <path class="cls-5" d="m23.45,13.33c.32,0,.63.03.94.09l1.01-4.42c-.63-.13-1.28-.19-1.95-.19-2.95,0-5.59,1.3-7.4,3.35l3.48,2.9c.97-1.06,2.36-1.73,3.92-1.73"/>
  <path class="cls-5" d="m36.2,5.15l-4.51,4.9c1.23,1.18,2.2,2.61,2.83,4.22l6.24-2.31c-1.01-2.6-2.58-4.92-4.57-6.81"/>
  <polygon class="cls-5" points="1.37 31.58 11.54 31.58 11.54 29.23 1.37 28.8 1.37 31.58"/>
  <polygon class="cls-5" points="35.36 31.58 45.53 31.58 45.53 28.8 35.36 29.23 35.36 31.58"/>
  <path class="cls-3" d="m28.76,18.64h0v.32l4.53-.3v-.02c0-2.77-1.15-5.28-3-7.07l-3.06,3.33c.95.96,1.54,2.28,1.54,3.74"/>
  <path class="cls-3" d="m18.13,18.64c0-1.08.32-2.08.87-2.91l-3.67-2.66c-1.09,1.58-1.73,3.5-1.73,5.57v2.43l4.53.31v-2.73Z"/>
  <path class="cls-3" d="m19.09,7.55l-2.31-6.24c-2.9,1.12-5.45,2.94-7.44,5.26l5.11,4.26c1.25-1.43,2.83-2.57,4.63-3.27"/>
  <rect class="cls-3" y="32.81" width="11.53" height="3.36"/>
  <rect class="cls-3" x="35.36" y="32.81" width="11.54" height="3.36"/>
  <g>
    <polygon class="cls-4" points="242.1 15.3 231.95 15.3 231.95 6.12 242.03 6.12 242.03 2.68 228.42 2.68 228.42 18.77 242.1 18.77 242.1 15.3"/>
    <polygon class="cls-4" points="221.38 10.83 219.38 10.83 219.38 2.68 215.81 2.68 215.81 23.51 219.38 23.51 219.38 14.31 221.38 14.31 221.38 23.51 224.95 23.51 224.95 2.68 221.38 2.68 221.38 10.83"/>
    <polygon class="cls-4" points="248.6 10.88 248.6 2.74 245.06 2.74 245.06 23.57 248.6 23.57 248.6 14.41 251.84 14.41 251.84 10.88 248.6 10.88"/>
    <polygon class="cls-4" points="237.57 27.33 237.57 21.67 234.1 21.67 234.1 30.77 248.66 30.77 248.62 27.33 237.57 27.33"/>
    <polygon class="cls-4" points="213.8 6.06 213.8 2.74 199.76 2.74 199.76 6.06 205.14 6.06 198.85 18.77 202.83 18.77 206.75 10.71 210.7 18.77 214.72 18.77 208.43 6.06 213.8 6.06"/>
    <path class="cls-4" d="m67.47,21.21c-2.07,0-3.94.84-5.29,2.2-1.34,1.35-2.17,3.21-2.17,5.26s.87,3.98,2.26,5.34c1.34,1.31,3.18,2.12,5.21,2.12s3.91-.83,5.26-2.17c1.36-1.35,2.2-3.22,2.2-5.29s-.81-3.86-2.12-5.21c-1.36-1.39-3.25-2.26-5.34-2.26m2.85,10.34c-.71.74-1.72,1.2-2.84,1.2s-2.1-.43-2.82-1.14c-.75-.73-1.21-1.75-1.21-2.9s.45-2.11,1.17-2.86c.74-.77,1.75-1.25,2.86-1.25s2.15.51,2.88,1.32c.67.74,1.08,1.74,1.08,2.83s-.42,2.09-1.11,2.8"/>
    <path class="cls-4" d="m119.53,2.73h-14.54v12.32l14.54.02V2.73Zm-3.49,9.14h-7.64v-5.83h7.64v5.83Z"/>
    <polygon class="cls-4" points="108.44 27.33 108.44 21.67 104.98 21.67 104.98 30.77 119.53 30.77 119.5 27.33 108.44 27.33"/>
    <polygon class="cls-4" points="67.46 12.61 63.96 12.61 63.96 16.76 58.04 16.76 58.11 20.12 76.98 20.12 76.98 16.76 67.46 16.76 67.46 12.61"/>
    <polygon class="cls-4" points="102.68 16.71 102.68 20.07 110.68 20.07 110.68 23.47 114.18 23.47 114.18 20.07 121.83 20.07 121.76 16.71 102.68 16.71"/>
    <polygon class="cls-4" points="71.03 6.18 71.03 15.06 74.49 15.06 74.49 2.74 60.52 2.74 60.55 6.18 71.03 6.18"/>
    <g>
      <polygon class="cls-4" points="169.04 10.88 169.04 2.74 165.5 2.74 165.5 23.57 169.04 23.57 169.04 14.41 172.28 14.41 172.28 10.88 169.04 10.88"/>
      <polygon class="cls-4" points="158.01 27.33 158.01 21.67 154.55 21.67 154.55 30.77 169.1 30.77 169.07 27.33 158.01 27.33"/>
      <polygon class="cls-4" points="157.13 12.61 153.63 12.61 153.63 16.76 149.41 16.76 149.48 20.12 165.9 20.12 165.9 16.76 157.13 16.76 157.13 12.61"/>
      <polygon class="cls-4" points="159.95 6.18 159.95 15.06 163.41 15.06 163.41 2.74 150.11 2.74 150.15 6.18 159.95 6.18"/>
    </g>
    <g>
      <path class="cls-4" d="m186.74,17.14c-2.07,0-3.94.84-5.29,2.2-1.34,1.35-2.17,3.21-2.17,5.26s.87,3.98,2.26,5.34c1.34,1.31,3.18,2.12,5.21,2.12s3.91-.83,5.26-2.17c1.36-1.35,2.2-3.22,2.2-5.29s-.81-3.86-2.12-5.21c-1.36-1.39-3.25-2.26-5.34-2.26m2.85,10.34c-.71.74-1.72,1.2-2.84,1.2s-2.1-.43-2.82-1.14c-.75-.73-1.21-1.75-1.21-2.9s.45-2.11,1.17-2.86c.74-.77,1.75-1.25,2.86-1.25s2.15.51,2.88,1.32c.67.74,1.08,1.74,1.08,2.83s-.42,2.09-1.11,2.8"/>
      <polygon class="cls-4" points="194.36 10.88 194.36 2.74 190.83 2.74 190.79 20.12 194.33 20.12 194.36 14.41 197.61 14.41 197.61 10.88 194.36 10.88"/>
      <polygon class="cls-4" points="182.51 12.61 179.01 12.61 179.01 16.76 174.72 16.76 174.79 20.12 191.22 20.12 191.22 16.76 182.51 16.76 182.51 12.61"/>
      <polygon class="cls-4" points="185.28 6.18 185.28 15.06 188.74 15.06 188.74 2.74 175.44 2.74 175.47 6.18 185.28 6.18"/>
    </g>
    <polygon class="cls-4" points="144.32 2.68 140.78 2.68 140.78 23.51 144.32 23.51 144.32 14.31 147.56 14.31 147.56 10.83 144.32 10.83 144.32 2.68"/>
    <polygon class="cls-4" points="79.5 20.06 88.12 20.06 88.12 26.57 91.62 26.57 91.62 20.06 100.3 20.06 100.37 16.69 79.5 16.69 79.5 20.06"/>
    <polygon class="cls-4" points="86.23 15.06 89.93 8.97 93.63 15.06 97.6 15.06 92.08 6.18 97.59 6.18 97.55 2.74 89.94 2.74 89.93 2.73 89.93 2.74 82.32 2.74 82.28 6.18 87.79 6.18 82.27 15.06 86.23 15.06"/>
    <path class="cls-4" d="m136.91,16.7c1.36-1.35,2.2-3.22,2.2-5.29s-.81-3.86-2.12-5.21c-.01-.01-.03-.03-.05-.04h1.89l-.07-3.47h-5.39V0h-3.5v2.68h-5.42v3.47h1.89c-1.34,1.35-2.16,3.2-2.16,5.25s.87,3.99,2.26,5.34c.95.92,2.14,1.59,3.46,1.91h-.03v1.41h-5.46l-.03,3.44h14.34l-.04-3.44h-5.28v-1.42c1.35-.33,2.55-1.01,3.5-1.96m-5.25-1.21c-1.11,0-2.1-.43-2.82-1.14-.75-.73-1.21-1.75-1.21-2.9s.45-2.11,1.17-2.86c.74-.77,1.75-1.25,2.86-1.25s2.15.51,2.88,1.32c.66.74,1.08,1.73,1.08,2.83s-.42,2.09-1.11,2.8c-.71.74-1.72,1.2-2.84,1.2"/>
  </g>
</svg>