<?xml version="1.0" encoding="UTF-8"?>
<svg id="_레이어_1" data-name="레이어 1" xmlns="http://www.w3.org/2000/svg" viewBox="0 0 536.22 152.18">
  <defs>
    <style>
      .cls-1 {
        stroke: #00a755;
        stroke-miterlimit: 10;
        stroke-width: .2px;
      }

      .cls-1, .cls-2 {
        fill: #00a755;
      }

      .cls-3 {
        fill: #231815;
      }

      .cls-3, .cls-4, .cls-2 {
        stroke-width: 0px;
      }

      .cls-4 {
        fill: #003893;
      }
    </style>
  </defs>
  <path class="cls-2" d="m68.09,19.52s-4.29-.2-4.84-5.14c0,0-.23-4.52,4.84-5.13,0,0,5.15.74,4.86,5.13,0,0,.48,4.8-4.86,5.14m7.05-5.14c-.17-7.33-7.05-7.04-7.05-7.04-7.48.33-7.04,7.04-7.04,7.04.83,7.7,7.04,7.05,7.04,7.05,7.37,0,7.05-7.05,7.05-7.05"/>
  <polygon class="cls-2" points="81.01 10.77 86.61 21.91 88.55 21.91 90.05 8.33 88.13 8.33 86.89 18.02 81.35 7.34 79.44 7.34 77.95 20.92 80.1 20.92 81.01 10.77"/>
  <path class="cls-2" d="m99.19,14.18l-.29,5.04-3.22-1.58,3.52-3.47Zm-7.99,8.48l2.96-3.15,4.76,1.91.1,4.21,2.11.91.09-14.53-1.83-.96-10.11,10.72,1.91.87Z"/>
  <polygon class="cls-2" points="108.22 28.66 104.45 26.35 110.26 16.29 108.55 15.04 101.67 26.92 107.27 30.16 108.22 28.66"/>
  <path class="cls-2" d="m120.63,39.1l8.66-7.82-1.41-1.37-7.86,7.12s-1.78.66-2.57-.71c0,0-1.12-1.12-.33-2.23l7.28-7.58-1.41-1.48-7.84,7.69s-1.68,2.32.55,4.72c0,0,2.11,2.78,4.91,1.66"/>
  <polygon class="cls-2" points="121.96 44.28 130.54 38.65 125.65 49.87 126.65 51.23 138.17 44.02 137.16 42.24 128.8 47.59 133.31 36.82 132.24 35.17 120.8 42.7 121.96 44.28"/>
  <polygon class="cls-2" points="128.22 55.42 140.93 50.41 140.23 48.59 127.35 53.67 128.22 55.42"/>
  <polygon class="cls-2" points="130.42 62.33 145.15 63.37 145.12 61.63 133.98 60.72 142.55 54.39 141.84 52.31 130.16 61.25 130.42 62.33"/>
  <polygon class="cls-2" points="132.03 75.08 134.06 75.12 133.81 69.91 137.78 69.66 138.19 74.8 140.11 74.67 139.73 69.66 143.78 69.25 143.96 74.38 145.98 74.34 145.41 67.05 131.61 68.17 132.03 75.08"/>
  <path class="cls-2" d="m139.85,90.51s-2.08-.37-3.98,2.76c0,0-.86,2.34-3.53.84,0,0-1.96-1.34.32-3.42l2.2-.12-.07-2.11-2.45.09s-2.89.74-2.77,4.06c0,0-.21,4.04,4.63,4.13,0,0,2.39.13,3.57-2.26,0,0,.81-2.02,1.99-2.02,0,0,1.75,0,2.01,1.71,0,0,.44,2.45-2.67,1.89l-.02,1.89s4.47,1.06,4.66-3.81c0,0,.32-3.2-3.88-3.64"/>
  <polygon class="cls-2" points="127.15 98.89 139.72 104.36 140.88 102.65 127.89 97 127.15 98.89"/>
  <polygon class="cls-2" points="135.62 107.96 125.37 102.31 124.25 103.89 134.6 109.94 133.23 112 134.9 112.95 138.61 107.1 137 105.89 135.62 107.96"/>
  <polygon class="cls-2" points="120.68 109.18 119.35 110.63 123.36 113.68 127.64 122.34 129.1 120.79 125.87 114.35 133.04 115.85 134.19 114.32 124.85 112.39 120.68 109.18"/>
  <polygon class="cls-2" points="27.24 114.17 29.54 106.63 27.8 104.7 25.49 112.65 16.99 112.75 18.29 114.6 26.77 114.67 21.52 118.74 22.6 120.39 33.67 112.09 32.4 110.58 27.24 114.17"/>
  <polygon class="cls-2" points="21.55 88.31 11.31 90.02 20.27 82.07 20 79.86 6.34 82.13 6.61 84.08 16.58 82.52 7.86 90.35 8.1 92.5 21.77 90.57 21.55 88.31"/>
  <path class="cls-2" d="m13.45,77.61c7.82-.37,7.05-7.04,7.05-7.04.27-6.39-6.65-6.83-6.65-6.83l-.71,8.39,1.9.28.55-5.96c3.55.86,2.99,4.25,2.99,4.25-.9,5.22-5.41,4.69-5.41,4.69-5.15-.62-4.84-4.75-4.84-4.75.38-3.36,2.03-3.76,2.03-3.76l.17-2.39c-4.81,1.27-4.42,6.31-4.42,6.31,1.04,7.11,7.34,6.82,7.34,6.82"/>
  <path class="cls-2" d="m20.77,59.46s.37,1.95-1.96,1.55l-.52,1.93,1.86.03s2.43-.03,2.65-3.4c0,0,.46-2.29-2.55-3.78l-10.04-3.1-.62,1.95,9.47,3.11s1.8.31,1.71,1.71"/>
  <path class="cls-2" d="m26.24,51.54s2.31-3.05-.49-5.72l-9.67-5.06-.96,1.77,8.88,4.75s2.03,1.09.38,3.14c0,0-.56,1.87-3.16.4l-8.27-4.25-.9,1.77,9.22,4.91s3.42,1.02,4.97-1.71"/>
  <polygon class="cls-2" points="34.16 38.99 27.17 31.69 39.31 34.36 40.43 33.18 30.96 23.39 29.62 24.61 36.42 31.91 24.57 29.21 23.23 30.57 32.68 40.42 34.16 38.99"/>
  <path class="cls-2" d="m44.7,23.31l-3.25,1.92-1.02-5,4.27,3.08Zm-1.84,8.16l-.84-4.21,4.29-2.61,3.65,2.45,1.72-1.09-11.84-8.72-1.67.99,2.82,14.38,1.87-1.19Z"/>
  <polygon class="cls-2" points="48.04 14.88 52.89 25.69 54.91 24.8 50.06 14.11 52.33 12.93 51.52 11.26 45.06 14.27 45.81 15.84 48.04 14.88"/>
  <polygon class="cls-2" points="60.44 23.05 56.8 9.83 54.59 10.45 58.2 23.74 60.44 23.05"/>
  <path class="cls-2" d="m141.21,85.88s-3.41.18-2.41-5.25l5.27.5s.34,4.57-2.86,4.76m-8.85-8.19l-.15,2.16,5.8.62-6.61,3.73-.09,2.37,5.74-2.92c-.12,4.41,4.63,4.16,4.63,4.16,4.35-.06,4.31-5.72,4.31-5.72l.2-2.82-13.83-1.57Z"/>
  <path class="cls-2" d="m13.69,101.34s-.12-4.38,5-5.12c0,0,4.6-.1,5.09,4.73,0,0,.3,4.72-5.28,5.06,0,0-4.44.03-4.81-4.66m4.79,6.84c7.7-.16,7.51-7.21,7.51-7.21-.09-6.71-7.37-6.95-7.37-6.95-7.61,1.02-7.05,7.23-7.05,7.23.54,7.3,6.91,6.93,6.91,6.93"/>
  <path class="cls-4" d="m76.15,149.73C35.43,149.73,2.41,116.71,2.41,75.99S35.43,2.24,76.15,2.24s73.73,33.02,73.73,73.75-34.4,73.74-73.73,73.74m-.07-149.73C34.07,0,0,34.07,0,76.09s34.07,76.09,76.09,76.09,76.1-35.5,76.1-76.09S118.13,0,76.09,0"/>
  <path class="cls-4" d="m66.09,111.38v10.68h-1.61v-9.25h-1.87l-.07-1.43h3.54Zm5.4-.05s3.73-.1,3.73,4.08c0,0-.75,2.66-4.01,6.68h-1.54l1.99-3.28s-4.14.29-4.02-3.76c0,0,.12-3.93,3.85-3.72m3.89,7.61l4.72-7.34h1.57v7.42h1.15v1.42h-1.12v1.61h-1.33v-1.61h-5v-1.5Zm9.65-4.84s-.12-2.86,2.94-2.7c0,0,2.7-.29,2.9,2.74,0,0,.21,1.23-.99,1.99,0,0,1.61,1.11,1.48,2.89,0,0,.13,3.19-3.31,3.41,0,0-3.2.12-3.48-3.32,0,0-.09-2.15,1.45-2.81,0,0-1.12-.55-1-2.2m-8.82,12.51c20.19-1.04,32.43-8.74,39.88-17.83l-80.66.04c15.3,19.23,40.78,17.78,40.78,17.78"/>
  <path class="cls-4" d="m118.45,63.62H33.6v-3.23h84.85v3.23Zm-20.19,27.2v-24.85h1.05v4.67l4.72-4.35s2.05,3.91,3.6,2.1c0,0,.68,1.56-1.81,3.11l-.05,17.76s.05,2.75,2.66,1.93l-2.42,4.59s-2.41.31-3.47-4.34c0,0-3.79,2.55-5.29,4.54,0,0-4.31-4.1-7.57-1.56,0,0-.13-3.17,3.85-4.73l-.07-7.69s-1.8-1.18-2.54,1.12c0,0-.5-.25-.68-2.23,0,0-.07-3.73,3.22-3.05v-5.34s-1.61-5.09-5.34-.12c0,0-.87-6.33,4.59-6.22,0,0,3.93-.37,4.16,5.4l-.06,18.64s1.18.07,1.44.62m-29.76-7.08s-.75.44-.75-2.54c0,0,.08-2.8,2.68-2.43v-8.51s-1.87-1.61-3.48,2.43c0,0-.87.06-.44-3.17,0,0,1-3.55,3.92-3.36,0,0,4.41-1.42,7.95,10.06,0,0,.72,3.11,4.47.87v-5.59s-1.54-.06-1.85-.62c0,0-.77-1.18-1.94-.31,0,0,.67-1.43,3.16-4.42,0,0,2.76,2.74,5.28.44,0,0,1.37,2.92-3.35,4.84v24.34s-2.86.88-6.22-10.42c0,0-3.29-2.63-6.27-.13l-.19,4.72s2.87-.13,4.55,1.87l.42-.56.75.76-2.92,4.02s-3.73-3.91-8.27-.74c0,0,.32-4.22,4.35-5.02v-7.58s-1.67-.44-1.87,1.06m-19-13.61s-1.93-.06-2.98-.62c0,0-.44-.5-3.04.56,0,0,.61-4.73,4.78-4.17,0,0,3.35,1.37,4.72.56,0,0-.51,3.55-3.48,3.67m7.64,21.3l.43-.31.74.62s-2.73,3.3-3.05,4.23c0,0-.81-.25-1.37-.93,0,0-2.79-2.61-9.37.12,0,0,5.03-9.38,12.61-3.73m-10.14-9.25s-.67-1.11-2.6,1.12c0,0-1.81-5.4,2.54-5.15l.2-1.99s.43-3.28,3.91-4.47c0,0-.69,1.49-.61,2.42l-.13,11.25s-.87,5.08-4.23,4.84c0,0,1.56-1.06.93-8.01m8.39-4.4l5.64-11.81c-.12,1.18,2.2,1.37,2.2,1.37.81.25,1.48-.63,1.48-.63.56,2.56-2.12,4.6-2.12,4.6-.65,1.18-3.04-.12-3.04-.12l-2.49,6.39c2.12.44,3.12,5.96,3.12,5.96,1.54,5.84,2.6,6.65,2.6,6.65.68,1.43,2.43.8,2.43.8-1.31,1.5-2.68,4.73-2.68,4.73-3.29.93-4.53-6.95-4.53-6.95-.87-5.16-2.61-7.58-2.61-7.58-.43,7.94-4.04,6.71-4.04,6.71,1.87-.69.82-14.79.82-14.79.68-5.84,4.09-5.84,4.09-5.84-1.86,1.06-.86,10.51-.86,10.51m59.44,23.59H37.08v-3.59h77.76v3.59Zm-20.99-44.92h-36.03l18.05-17.14,17.98,17.14Zm-17.89-29.24l30.38,29.24h-6.38l-24.17-23.03-24.11,23.2h-6.04l30.32-29.4Zm.24-1.99c-51.18,3.49-51.93,50.69-51.93,50.69.7,12.67,3.99,22.16,8.59,29.3l85.92-.04c9.25-13.85,8.86-29.26,8.86-29.26-2.49-50.69-51.44-50.69-51.44-50.69"/>
  <polygon class="cls-4" points="83.17 52.23 75.88 45.19 68.76 52.31 83.17 52.23"/>
  <path class="cls-4" d="m77.21,83.3c-3.16-11.67-5.78-12.61-5.78-12.61l.06,12.99c1.99-1.74,5.72-.38,5.72-.38"/>
  <path class="cls-4" d="m82.86,78.65c-1.61,1.06-3.67.25-3.67.25,1.43,6.52,3.67,9.68,3.67,9.68v-9.93Z"/>
  <path class="cls-4" d="m102.49,76.35v-4.91c-.81-.56-1.37-1.42-1.37-1.42l-1.74,1.49v4.41c.62,1.18,3.11.43,3.11.43"/>
  <path class="cls-4" d="m102.56,83.3l-.07-5.65s-1.42.68-3.17.06v5.59s1.24-.74,3.24,0"/>
  <path class="cls-4" d="m102.42,89.95l.1-5.37c-1.09-1.05-3.3-.04-3.3-.04l.17,7.21c0,.56,3.04-1.8,3.04-1.8"/>
  <path class="cls-4" d="m71.45,117.36c2.44-.36,2.21-2.19,2.21-2.19-.17-2.19-2.21-2.23-2.21-2.23-2.03-.25-2.23,2.19-2.23,2.19-.09,2.07,2.23,2.23,2.23,2.23"/>
  <polygon class="cls-4" points="77.25 119.02 80.31 119.02 80.31 113.93 77.25 118.44 77.25 119.02"/>
  <path class="cls-4" d="m87.97,115.58c1.38-.03,1.33-1.37,1.33-1.37.04-1.33-1.33-1.53-1.33-1.53-1.61.21-1.35,1.49-1.35,1.49-.13,1.41,1.35,1.41,1.35,1.41"/>
  <path class="cls-4" d="m87.97,121.09c2.08-.47,1.82-2.11,1.82-2.11-.12-1.92-1.86-1.83-1.86-1.83-1.78-.04-1.82,1.78-1.82,1.78-.16,1.87,1.85,2.16,1.85,2.16"/>
  <g>
    <path class="cls-1" d="m51.66,130.97l2.07-4.35s.68-1.44-1.07-2.32c-1.75-.89-7.87-3.75-7.87-3.75l-.7,1.46,7.94,3.77-2.08,4.37-3.24-1.54,1.22-2.57-1.67-.8-1.22,2.57-3.75-1.78-.69,1.46,11.15,5.3.69-1.46-.77-.37Z"/>
    <path class="cls-1" d="m43.03,136.73c-1.87-.89-2.95-2.5-2.43-3.6.52-1.1,2.46-1.28,4.33-.39,1.86.89,2.95,2.5,2.43,3.6-.52,1.1-2.46,1.28-4.33.39m2.53-5.32c-2.81-1.34-5.79-.93-6.66.91-.87,1.83.69,4.41,3.5,5.74,2.81,1.33,5.79.93,6.66-.91.87-1.84-.69-4.41-3.5-5.74"/>
  </g>
  <g>
    <path class="cls-2" d="m97.57,125.81l.82,1.56,8.07-4.21,4.36,8.35,1.65-.86-4.48-8.58s-.61-1.42-2.13-.59l-8.28,4.33Z"/>
    <polygon class="cls-2" points="110.15 134.11 106.69 127.49 105.06 128.35 108.51 134.97 106.75 135.89 103.3 129.27 101.66 130.12 105.11 136.74 103.13 137.78 103.85 139.16 114.57 133.57 113.84 132.18 110.15 134.11"/>
  </g>
  <g>
    <polygon class="cls-1" points="65.15 138.19 53.54 135.05 53.13 136.59 58 137.91 56.56 143.23 58.33 143.71 59.77 138.39 64.73 139.73 65.15 138.19"/>
    <path class="cls-1" d="m62.08,129.67l4.28,1.16.41-1.52-10.18-2.75-.41,1.52,4.16,1.12c-.17.67-1.09,3.09-5.57,2.75l.13,1.6s3.42.19,5.48-1.22c0,0,1.15,2.44,4.47,4.01l.84-1.4s-4.6-2.15-3.6-5.27"/>
  </g>
  <path class="cls-1" d="m78.73,129.82v6.34h-1.18v-6.34h-1.8v11.39h-4.6v-9.87h3.36v-1.54h-5.12v11.19s-.03,1.76,1.46,1.73h4.9v2.91h1.8v-7.8h1.18v7.8h1.8v-15.82h-1.8Z"/>
  <g>
    <polygon class="cls-1" points="96.79 129.78 95.38 130.17 94.26 126.17 92.45 126.68 95.3 136.88 97.11 136.37 95.85 131.87 97.27 131.47 96.79 129.78"/>
    <polygon class="cls-1" points="88.56 128.91 88.16 127.48 86.36 127.99 86.76 129.42 83.48 130.33 83.92 131.91 92.28 129.57 91.83 128 88.56 128.91"/>
    <path class="cls-1" d="m89.7,136.5c-1.19.33-2.4-.3-2.71-1.4-.31-1.11.4-2.28,1.59-2.61,1.19-.33,2.4.3,2.71,1.4.31,1.11-.4,2.28-1.59,2.61m-1.51-5.38c-2.15.6-3.48,2.6-2.95,4.46.52,1.86,2.69,2.88,4.84,2.28,2.15-.6,3.47-2.6,2.95-4.46-.52-1.86-2.69-2.89-4.84-2.28"/>
    <path class="cls-1" d="m86.75,139.84l.43,1.54,8.66-2.42,1.15,4.1,1.87-.53-1.15-4.11s-.34-1.59-2.06-1.08l-8.9,2.5Z"/>
  </g>
  <path class="cls-2" d="m120.91,122.76c0,1.03-.83,1.86-1.86,1.86s-1.86-.83-1.86-1.86.83-1.86,1.86-1.86,1.86.84,1.86,1.86Z"/>
  <path class="cls-2" d="m35.53,122.76c0,1.03-.84,1.86-1.86,1.86s-1.86-.83-1.86-1.86.83-1.86,1.86-1.86,1.86.84,1.86,1.86Z"/>
  <path class="cls-3" d="m207.66,69.06h.02v-9.56h0c-.1-1.91-1.58-3.15-3.5-3.17h-6.04v-5.51h11.19v-3.34h-1.58v-10.31c-.04-2.34-1.15-3.35-3.47-3.37-1.23,0-2.47,0-3.7,0h-15.72v3.6h19.18v10.08h-20.77v3.34h11.02v5.51h-9.68v3.63h19.34v9.1h3.72Z"/>
  <path class="cls-3" d="m186.01,107.64c.08,1.57,1.08,2.42,2.76,2.7.74.12.99.15,1.63.19h17.57v-13.09h-3.91v2.75h-13.96v-2.86h-2.01c-.22,0-.44,0-.66,0h-1.42v10.32h0Zm18.05.11h-13.96v-4.5h13.96v4.5Z"/>
  <path class="cls-3" d="m204.1,93.23v1.98h3.87v-20.38h-3.87v14.93h-16.06v-3.58h11.28v-7.17c-.09-2.02-1.12-3.13-3.06-3.26h-12.18v3.52h11.16v3.5h-11.16v7.11h0c.15,2.06,1.26,3.18,3.28,3.35h0"/>
  <path class="cls-3" d="m281.33,64.63v-21.58s0-7.17-8.78-7.37c-8.79-.22-39.05,0-39.05,0v7.27h39.34v21.69h-16.05v-12.76h-8.29v12.76h-18.6v7.23h55.28v-7.23h-3.83Z"/>
  <path class="cls-3" d="m257.52,104.49c-9.25,0-16.74-4.43-16.74-9.89s7.49-9.88,16.74-9.88,16.74,4.42,16.74,9.88-7.5,9.89-16.74,9.89m0-26.37c-13.91,0-25.2,7.38-25.2,16.48s11.28,16.48,25.2,16.48,25.2-7.37,25.2-16.48-11.28-16.48-25.2-16.48"/>
  <polygon class="cls-3" points="347.89 76.95 292.71 76.95 292.71 84.29 315.89 84.29 315.89 109.59 324.28 109.59 324.28 84.29 347.89 84.29 347.89 76.95"/>
  <path class="cls-3" d="m324.06,42.94h20.32v-7.23h-48.37v7.23h19.74c.06,3.15-1.09,15-21.37,18.85l2.48,6.95s15.38-3.26,22.82-11.98c0,0,8.01,9.43,24.6,12.4l2.05-7.23s-22.93-3.98-22.26-19"/>
  <path class="cls-3" d="m400.82,35.81v29.55h-5.53v-29.55h-8.4v53.12h-21.43v-46h15.66l-.05-7.15h-23.84v52.16s-.14,8.22,6.8,8.08h22.86v13.57h8.4v-36.35h5.53v36.35h8.4V35.81h-8.4Z"/>
  <polygon class="cls-3" points="476.63 54.1 470.04 54.1 470.04 35.49 461.64 35.49 461.64 82.91 470.04 82.91 470.04 61.97 476.63 61.97 476.63 54.1"/>
  <polygon class="cls-3" points="442.19 40.44 442.19 33.79 433.79 33.79 433.79 40.44 418.53 40.44 418.53 47.77 457.39 47.77 457.39 40.44 442.19 40.44"/>
  <path class="cls-3" d="m437.94,74.53c-5.52,0-10-4.17-10-9.32s4.48-9.33,10-9.33,9.99,4.18,9.99,9.33-4.47,9.32-9.99,9.32m0-25c-10.01,0-18.13,7.02-18.13,15.68s8.12,15.68,18.13,15.68,18.12-7.02,18.12-15.68-8.12-15.68-18.12-15.68"/>
  <path class="cls-3" d="m421.17,85.39v7.16h40.26v19.07h8.71v-19.14s.48-7.28-7.6-7.12l-41.37.04Z"/>
  <path class="cls-3" d="m483.68,38.58v8.12h41.68v43.12l8.51-.02v-44.31s.53-7.08-7.4-6.92h-42.79Z"/>
  <polygon class="cls-3" points="517.14 98.97 517.14 64.78 508.68 64.78 508.68 98.97 499.59 98.97 499.59 64.78 491.14 64.78 491.14 98.97 480.88 98.97 480.88 106.14 536.22 106.14 536.22 98.97 517.14 98.97"/>
</svg>