<?xml version="1.0" encoding="UTF-8"?>
<svg id="_레이어_1" data-name="레이어 1" xmlns="http://www.w3.org/2000/svg" viewBox="0 0 231.09 121.36">
  <defs>
    <style>
      .cls-1 {
        fill: #007541;
      }

      .cls-2 {
        fill: #da996a;
      }
    </style>
  </defs>
  <ellipse class="cls-1" cx="115.55" cy="60.68" rx="115.55" ry="60.68"/>
  <g>
    <path class="cls-2" d="m68.64,19.51c.06-.09.2-.07.24.03.66,1.82,2.56,7.26-1.65,8.64-1.12.37-5.96.14-5.96.14,2.21,1.89,3.06,4.85,2.31,8.43-1.45,6.88-7.41,11.33-15.32,11.33-1.74,0-3.29-.27-4.6-.74-2.42,1.62-3.59,3.03-3.94,4.72-.48,2.29,1.08,3.44,4.83,3.44h9.04c5.69,0,8.4,2.7,7.38,7.55-1.47,6.94-8.43,11.06-18.54,11.06-9.11,0-13.34-3.1-12.12-8.9.71-3.37,4.64-6.13,8.13-7.42-1.94-.94-2.59-2.63-2.08-5.06.47-2.22,1.76-3.57,5.94-5.93-3.5-1.82-5.16-5.39-4.17-10.05,1.44-6.81,7.38-11.19,15.09-11.19,2.61,0,5.57.27,9.5.67,0,0,3.56.44,6.13-.34,1.63-.49-1.29-2.67-2.64-3.36-.11-.06-.13-.19-.06-.29,1-.59,1.82-1.53,2.5-2.74Zm-25.3,51.9c8.37,0,13.06-2.56,14.14-7.69.65-3.1-1.29-4.99-5.11-4.99h-8.44c-1.47,0-2.8-.07-3.81-.34-3.69,1.62-5.8,3.71-6.35,6.27-.91,4.31,2.53,6.74,9.56,6.74Zm15.01-42.08c-2.57-4.36-7.27-4.18-12.02.57-4.32,4.32-5.48,9.92-2.98,14.16,2.63,4.47,7.29,4.51,11.67.14,4.86-4.86,6.07-10.24,3.34-14.87Z"/>
    <path class="cls-2" d="m88.99,59.5l.13-.61c.09-.41.23-.47.58-.54l4.08-.61c.97-.13,1.14-.34,1.36-1.35l5.56-25.62-6.68-.61c-.39-.07-.43-.2-.35-.54l.13-.61c.09-.41.17-.47.58-.54l9.06-1.15c1.25-.2,1.46.07,1.27.94l-1.31,5.46-.06.61c4.78-4.58,11.21-7.75,16.3-7.75,6.29,0,8.86,3.71,7.41,10.58l-4.1,19.42c-.19.88.05,1.01,1.02,1.21l3.32.54c.39.07.43.2.35.54l-.13.61c-.09.4-.17.47-.57.47h-13.35c-.4,0-.44-.13-.37-.47l.13-.61c.09-.41.17-.47.58-.54l4.08-.61c.9-.13,1.08-.34,1.29-1.35l4-18.94c1.07-5.06-.8-7.62-5.56-7.62-4.42,0-9.35,1.17-14.48,5.48l-4.49,21.28c-.19.88-.01,1.01.95,1.21l5.24.54c.32.07.43.2.35.54l-.13.61c-.09.4-.23.47-.64.47h-15.2c-.4,0-.44-.13-.37-.47Z"/>
    <path class="cls-2" d="m126.5,65.92c.06.2-.09.41-.3.4-3.97-.09-12.01,1.63-12.42,7.88-.41,6.23,9.46,8.45,17.27,8.45,9.44,0,18.36-2.85,19.91-8.14,1.47-4.98-3.63-6.25-7.27-6.51h-8.44c-1.47,0-2.47-.07-3.48-.34-.52-.13-1-.34-1.46-.58-1.94-.94-3.14-2.65-2.62-5.08.47-2.22,1.76-3.57,5.94-5.93-3.5-1.82-5.16-5.39-4.17-10.05,1.44-6.81,7.38-11.19,15.09-11.19,2.61,0,5.57.27,9.5.67l5.33-2.01c.43-.13.54,0,.68.27.28.88.28,2.28.25,3.36,0,.34-.17.47-.57.47h-7.14c2.21,1.89,3.06,4.85,2.31,8.43-1.45,6.88-7.41,11.33-15.31,11.33-1.74,0-3.29-.27-4.6-.74-2.42,1.62-3.59,3.03-3.94,4.72-.48,2.29,1.08,3.44,4.83,3.44h9.04c5.69,0,10.14,4.14,9.54,9.07-.92,7.63-13.39,12.01-24.37,11.23-9.53-.67-17.89-4.23-17.13-10.93.53-4.7,5.57-10.53,12.52-10.89.14,0,.27.09.31.22-.1,1.13.32,1.77.71,2.44Zm25.17-25.98c-1.68-5.11-6.62-5.97-12.65-2.08-5.48,3.53-7.96,9.1-6.32,14.08,1.73,5.24,6.57,6.32,12.12,2.74,6.16-3.97,8.64-9.3,6.85-14.74Z"/>
    <path class="cls-2" d="m148.22,60.83c8.14-3.98,11.51-7.89,14.22-16.52l6.8-21.41c-2.33,1.73-8.14,3.61-12.78,3.95-.38-.07-.41-.2-.28-.61l.17-.54c.13-.4.21-.47.64-.54,4.7-.71,11.12-3.37,15.52-5.63,1.2-.2,1.47,0,1.2.88l-7.59,23.9c-2.98,9.51-6.91,13.48-17.58,18.07-.4.2-.51.13-.61-.2l-.1-.74c-.12-.27,0-.4.39-.61Zm23.13-48.85c.49-1.55,2.07-2.76,3.75-2.76s2.43,1.21,1.95,2.76-2.03,2.63-3.64,2.63-2.52-1.15-2.06-2.63Z"/>
    <path class="cls-2" d="m173.79,49.26l4.18-19.82-4.05-.61c-.39-.07-.43-.2-.35-.54l.13-.61c.09-.41.23-.47.58-.54l6.63-1.15c1.25-.2,1.46.07,1.27.94l-4.65,22.05c-1.05,4.99.75,7.55,5.24,7.55,4.75,0,9.44-.93,14.64-5.24l4.47-21.86-5.36-.61c-.39-.07-.43-.2-.35-.54l.13-.61c.09-.41.23-.47.58-.54l7.94-1.15c1.25-.2,1.46.07,1.27.94l-6.22,29.46,4.98-.47c.37.13.43.2.34.61l-.13.61c-.07.34-.23.47-.58.54l-8.2,2.09c-.4,0-.69-.2-.57-.81l1.35-6.4c-4.58,4.25-10.56,7.21-15.99,7.21-6.36,0-8.77-3.51-7.29-10.52Z"/>
    <path class="cls-2" d="m87.43,106.96l.13-.61c.09-.41.23-.47.65-.54l4.01-.61c.97-.13,1.14-.34,1.36-1.35l16-47.81-5.36-.61c-.39-.07-.43-.2-.36-.54l.13-.61c.09-.4.23-.47.58-.54l7.94-1.15c1.25-.2,1.46.07,1.27.94l-16.57,50.51c-.19.88-.01,1.01.95,1.21l5.71.54c.39.07.43.2.35.54l-.13.61c-.09.4-.23.47-.57.47h-15.73c-.34,0-.44-.13-.37-.47Z"/>
    <path class="cls-2" d="m112.93,91.1c2.19-10.38,9.67-16.92,19.31-16.92s14.42,6.54,12.23,16.92c-2.21,10.45-9.6,16.92-19.38,16.92s-14.37-6.47-12.16-16.92Zm26.53,2.33c3.8-9.93,2.02-17.04-4.63-18.43-6.77-1.41-13.03,3.68-16.89,13.77-3.86,10.09-2.08,17.03,4.63,18.43,6.83,1.43,13.03-3.68,16.89-13.77Z"/>
    <path class="cls-2" d="m151.52,95.92l.13-.61c.09-.41.23-.47.58-.54l4.08-.61c.97-.13,1.14-.34,1.36-1.35l5.55-26.29-5.36-.61c-.39-.07-.43-.2-.35-.54l.13-.61c.09-.41.17-.47.58-.54l7.74-1.15c1.25-.2,1.46.07,1.27.94l-1.29,6.13-.06.61c4.78-4.58,11.21-7.75,16.3-7.75,6.29,0,8.86,3.71,7.41,10.58l-4.1,19.42c-.19.88.05,1.01,1.02,1.21l6.01.54c.39.07.43.2.35.54l-.13.61c-.09.4-.17.47-.57.47h-15.38c-.4,0-.44-.13-.37-.47l.13-.61c.09-.41.17-.47.58-.54l3.42-.61c.9-.13,1.08-.34,1.29-1.35l4-18.94c1.07-5.06-.8-7.62-5.56-7.62-4.42,0-9.29.87-14.42,5.19l-4.55,21.57c-.19.88-.01,1.01.95,1.21l4.59.54c.32.07.43.2.35.54l-.13.61c-.09.4-.23.47-.64.47h-14.54c-.4,0-.44-.13-.37-.47Z"/>
    <path class="cls-2" d="m63.55,91.49c1.42-5.72,5.96-8.66,14.72-9.56l10.4-1.12,1.11-4.47c1.44-5.79-.8-8.79-6.41-8.79-3.74,0-7.37.91-9.12,5.17l-1.18,3.07c-.17.42-.33.49-.75.49h-.62c-.35,0-.45-.14-.43-.49.17-2.37.33-4.68.49-6.98.03-.42.14-.56.54-.77,2.44-1.19,7.02-3.14,11.94-3.14,7.7,0,11.16,4.19,9.43,11.17l-5.07,20.38,5.46.91c.31.14.43.21.33.63l-.16.63c-.09.35-.26.49-.68.49l-3.83.35c-5.32.49-5.63.07-5.13-1.95l1.02-4.12c-2.65,2.86-8.91,6.56-14.8,6.56s-8.51-3.42-7.26-8.45Zm22.57-.42l2.46-9.91s-10.07,1.67-13.1,2.85c-3.03,1.18-7.01,3.01-8.03,7.13-.87,3.49,1.02,5.65,4.97,5.65,6.17,0,11.91-3.84,13.69-5.72Z"/>
    <path class="cls-2" d="m61.46,97.84c-1.96,6.01-8.08,9.49-16.44,9.49-4.45,0-6.18-2.26-6.62-3.08-.2-.2-.43-1.12-.38-1.46l1.4-5.35c.07-.46.32-.82.79-1.07l1.19-.66c.08-.04.17.03.14.11l-.75,2.84c-.03.1-.1.17-.2.18-.4.06-1.42.39-1.42,2.02,0,2.04,1.35,3.99,6.72,3.99,6.04,0,10.17-2.27,11.52-6.41.92-2.81-.68-4.41-6.71-6.68-7.64-2.81-9.38-4.81-7.94-9.22,1.72-5.28,7.84-8.75,15.34-8.75,3.65,0,7.17,1,8.3,1.6.22.13.29.33.16.73l-1.96,7.42c-.13.4-.22.47-.64.53l-1.08.07c-.33,0-.44-.07-.38-.47l.56-3.14c.49-3.54-2.43-4.34-5.88-4.34-5.18,0-9.3,2.27-10.46,5.81-.96,2.94.42,4.21,6.8,6.61,7.51,2.81,9.33,4.94,7.94,9.22Z"/>
    <path class="cls-2" d="m62.62,46.73c2.19-10.38,9.67-16.92,19.31-16.92s14.42,6.54,12.23,16.92-9.6,16.92-19.38,16.92-14.37-6.47-12.16-16.92Zm26.57,2.13c3.62-10,1.71-17.08-4.97-18.34s-12.96,3.92-16.63,14.08c-3.67,10.16-1.77,17.06,4.97,18.34s12.96-3.92,16.63-14.08Z"/>
  </g>
</svg>