<?xml version="1.0" encoding="UTF-8"?>
<svg xmlns="http://www.w3.org/2000/svg" viewBox="0 0 147.42 92.01">
  <defs>
    <style>
      .cls-1 {
        fill: #27a666;
      }

      .cls-1, .cls-2, .cls-3, .cls-4, .cls-5 {
        stroke-width: 0px;
      }

      .cls-2 {
        fill: #cf1e39;
      }

      .cls-3 {
        fill: #666c6c;
      }

      .cls-4 {
        fill: #f36f20;
      }

      .cls-5 {
        fill: #00a3e0;
      }
    </style>
  </defs>
  <path class="cls-1" d="m19.58,41.82l-1.54,3.48c-.23-.03-.57-.09-1.01-.18-.44-.09-1.14-.29-2.11-.6-.96-.31-1.92-.83-2.85-1.57-.94-.73-1.7-1.59-2.29-2.58-.73,1.23-1.78,2.25-3.14,3.07-1.36.82-2.54,1.33-3.54,1.54l-1.49.31-1.63-3.48c.21-.02.49-.06.83-.12.35-.05.97-.25,1.84-.59.88-.34,1.65-.77,2.31-1.29.66-.52,1.26-1.32,1.82-2.4.55-1.08.83-2.33.83-3.74v-1.96c0-.65-.43-1.17-1.28-1.56-.56-.24-.93-.52-1.12-.86-.19-.34-.17-.63.05-.88.22-.25.58-.37,1.07-.37h5.57v5.63c0,1.44.26,2.69.79,3.78.52,1.08,1.16,1.88,1.91,2.4.75.52,1.49.94,2.24,1.27.75.33,1.38.52,1.91.57l.79.12Zm8.03,20.34h-13.65c-1.14,0-2.08-.18-2.83-.55-.75-.37-1.25-.76-1.52-1.19-.26-.43-.42-.83-.48-1.19l-.09-.55v-6.18c0-.62-.42-1.12-1.27-1.48-.82-.36-1.21-.79-1.19-1.29.03-.5.43-.74,1.19-.74h5.62v10.05h14.22v3.13Zm-.96-12.12h-4.35v-21.2c0-.6-.43-1.08-1.27-1.44-.82-.39-1.21-.83-1.19-1.31.03-.48.42-.72,1.19-.72h5.62v24.68Z"/>
  <path class="cls-5" d="m58.2,45.02h-10.09v2.74c1.79.42,3.21,1.27,4.28,2.56,1.07,1.29,1.6,2.8,1.6,4.52,0,2.11-.77,3.86-2.33,5.26-1.55,1.39-3.56,2.09-6.01,2.09s-4.46-.7-5.99-2.09c-1.54-1.4-2.3-3.15-2.3-5.26,0-1.8.58-3.36,1.76-4.7,1.17-1.33,2.72-2.16,4.65-2.5v-2.62h-8.03c-1.99,0-3.37-.78-4.12-2.35-.18-.29-.19-.49-.02-.61.16-.12.36-.17.59-.17h26.03v3.13Zm-2.28-5.08h-17.73c-1.99,0-3.37-.77-4.13-2.31-.18-.31-.18-.53-.02-.64.16-.12.36-.18.59-.18h4.57v-6.92h-.53c-2.02,0-3.41-.78-4.17-2.35-.29-.52-.1-.78.57-.78h20.41v3.13h-3.16v6.92h3.6v3.13Zm-6.41,14.9c0-1.2-.35-2.18-1.03-2.95-.69-.77-1.63-1.15-2.83-1.15s-2.13.38-2.79,1.14c-.66.75-.99,1.75-.99,2.97s.32,2.21.97,2.97c.64.75,1.58,1.13,2.81,1.13s2.14-.38,2.83-1.13c.69-.76,1.03-1.75,1.03-2.97Zm-1.58-18.03v-6.92h-4.35v6.92h4.35Z"/>
  <path class="cls-4" d="m77.86,36.42c0,2.09-.8,3.83-2.41,5.24-1.61,1.41-3.57,2.11-5.88,2.11s-4.28-.7-5.88-2.11c-1.61-1.41-2.41-3.16-2.41-5.24s.8-3.88,2.41-5.3c1.61-1.42,3.57-2.13,5.88-2.13s4.27.71,5.88,2.13c1.61,1.42,2.41,3.19,2.41,5.3Zm-4.56,0c0-1.15-.35-2.13-1.05-2.95-.7-.82-1.59-1.23-2.67-1.23s-2.02.41-2.72,1.23c-.7.82-1.05,1.81-1.05,2.95s.35,2.09,1.05,2.9c.7.81,1.61,1.21,2.72,1.21s1.97-.41,2.67-1.21c.7-.81,1.05-1.77,1.05-2.9Zm18.48,14.55h-4.35v-12.67h-2.54v11.93h-4.3v-19.52c0-.63-.44-1.12-1.32-1.49-.53-.23-.88-.51-1.05-.84-.17-.32-.16-.61.04-.84.21-.24.54-.35,1.01-.35h5.62v7.98h2.54v-6.3c0-.6-.42-1.08-1.27-1.44-.55-.24-.93-.52-1.12-.86-.19-.34-.18-.63.04-.86.22-.24.58-.35,1.08-.35h5.62v25.62Z"/>
  <path class="cls-3" d="m72.01,69.01h-1.54c-1.14,0-2.08-.18-2.83-.55-.75-.36-1.25-.77-1.51-1.21-.26-.44-.42-.85-.48-1.21l-.09-.55v-5.98c0-.6-.42-1.08-1.27-1.44-.55-.26-.92-.56-1.1-.88-.17-.33-.16-.6.04-.82.21-.22.56-.33,1.05-.33h5.62v9.81h13.21v3.17h-6.8v3.48h10.05v3.21h-22.47c-1.99,0-3.37-.78-4.12-2.35-.29-.57-.1-.86.57-.86h11.68v-3.48Zm7.81,10.44c1.55,1.38,2.33,3.13,2.33,5.24s-.78,3.86-2.33,5.24c-1.55,1.38-3.56,2.07-6.01,2.07s-4.46-.69-5.99-2.07c-1.54-1.38-2.3-3.13-2.3-5.24s.76-3.86,2.3-5.24c1.53-1.38,3.53-2.07,5.99-2.07s4.46.69,6.01,2.07Zm-2.15,5.24c0-1.2-.35-2.18-1.03-2.95-.69-.77-1.63-1.15-2.83-1.15s-2.13.38-2.79,1.14c-.66.75-.99,1.75-.99,2.97s.32,2.21.97,2.97c.64.75,1.58,1.13,2.81,1.13s2.14-.38,2.83-1.13c.69-.76,1.03-1.75,1.03-2.97Z"/>
  <path class="cls-3" d="m117.62,76.83h-10.1v7.47h-4.34v-7.47h-9.72c-2.02,0-3.39-.77-4.12-2.31-.18-.31-.19-.53-.02-.67.16-.13.36-.2.59-.2h27.71v3.17Zm-3.68-5.4h-12.6c-1.14,0-2.09-.18-2.85-.55-.76-.36-1.27-.76-1.54-1.19-.26-.43-.42-.83-.48-1.19l-.09-.55v-7.04c0-.6-.44-1.08-1.32-1.44-.82-.37-1.22-.8-1.19-1.31.03-.51.42-.76,1.19-.76h5.66v4.62h8.87v-1.88c0-.6-.43-1.08-1.27-1.45-.56-.26-.92-.55-1.1-.88-.18-.32-.16-.6.04-.82.2-.22.55-.33,1.05-.33h5.62v14.78Zm-4.35-3.13v-3.13h-8.87v3.13h8.87Z"/>
  <path class="cls-3" d="m147.42,74.79h-22.47c-1.99,0-3.37-.78-4.12-2.35-.18-.29-.19-.49-.02-.6.16-.12.36-.18.59-.18h26.03v3.13Zm-3.68-5.98h-12.64c-1.14,0-2.08-.18-2.83-.53-.75-.35-1.25-.75-1.51-1.17-.26-.43-.42-.83-.48-1.19l-.09-.51v-5.63c0-.57-.44-1.04-1.32-1.41-.56-.24-.93-.51-1.12-.82-.19-.31-.18-.58.04-.8.22-.22.58-.33,1.07-.33h18.88v3.05h-13.21v6.26h13.21v3.09Zm.92,23.19h-13.52c-1.12,0-2.04-.18-2.79-.55-.75-.37-1.26-.77-1.54-1.21-.28-.44-.46-.85-.55-1.21l-.13-.55v-2.03c0-.63-.44-1.12-1.32-1.49-.82-.36-1.21-.79-1.19-1.29.03-.49.42-.74,1.19-.74h14.57v-2.54h-10.23c-2.02,0-3.41-.77-4.17-2.31-.29-.57-.09-.86.61-.86h18.17v8.84h-13.26v2.82h14.14v3.13Z"/>
  <g>
    <path class="cls-2" d="m111.6,36.55h-.03c-1.97.02-3.55,1.63-3.54,3.6,0,.95.39,1.84,1.07,2.51.67.66,1.56,1.02,2.5,1.02h.03c1.96-.02,3.55-1.63,3.54-3.6-.02-1.96-1.61-3.54-3.57-3.54Z"/>
    <path class="cls-2" d="m113.34,23.53c-.66-.16-1.32-.24-1.98-.24s-1.33.08-1.97.24c-.12.03-.21.13-.21.24l.04,4.55c0,.07.04.14.1.18.07.05.18.07.27.05.56-.14,1.15-.22,1.74-.22.62,0,1.26.07,1.89.22.09.02.2,0,.27-.05.06-.05.1-.11.1-.19l-.04-4.55c0-.11-.09-.2-.21-.23Z"/>
    <path class="cls-2" d="m124.18,21.76c-.08-.16-.08-.3-.08-.44l-.32.16c.05-.16.05-.3.19-.3-.21-.16-.54.13-.83-.2.16-.22-.18-.65.25-.73-.14.68.43-.08.5.49-.05-.11-.05-.25,0-.41.05-.02.09.02.11.07.38-.65-.49-.29-.48-.97.24.08.46-.16.4-.27,0,.27-.4.13-.59-.11.18-.43-.14-.47-.12-.69l-.09.26c-.24-.09-.21-.3-.29-.6.19-.03.13.27.21.16-.43-.33.43-.76.14-1.22.16-.22.45-.02.56-.21-.32-.52.32-.57.06-1.11-.32.16-.24.19-.56-.2l.24.9-.48-.57c0,.27.21.57.15.73-.27-.27-.19-.25-.45-.11.48-.38-.29-.73.04-1.17h.8c.35-.64-.42-1.14-.23-1.98l-.14.27c-.32-.11-.05-.52-.18-.79.27.02.36-.15.53-.27-.2.02.01-.61-.52-.69l.35-.38c.14-.68-.77-.76-.69-1.42.3.2.48-.1.7.33,0-.21.04-.42-.14-.43.16-.16-.4-.65-.16-.89-.13-.09-.42-.09-.43-.35.05-.04.13-.02.13-.02-.13.02-.24-.38-.5-.1.38-.42.21-.92.06-1.39-.21-.46-.4-.89-.24-1.33-.3-.45-.72-.93-1.01-1.3.08-.02.11-.08.14.01-.22-.67-.84.15-1.1-.55.05-.56.44.12.4-.16.56-.67-.7-.58-.77-1.26l.13.04c-.12-.51-.97-.33-1.46-.71,0,0,.07-.05.07-.11-.31.09-.65.07-.98.02-.34-.03-.68-.1-.97-.15.29-.26.31-.07.33-.44-.26-.05-.13.54-.64.48-.1-.23-.4-.5-.36-.88l.49.13c-.11-.55-.64-.19-.88-.31l.08-.2c-.8-.11-.89.44-1.69.3l.07.17c-.47.5-.35-.31-.81.06l-.13-.54c-.3.12-.96.52-1.46.63.28-.4.85-.61,1.2-.85-.27,0-.92.05-1.06.31.11-.05.25-.19.35-.1-.33.42-.77.64-1.31.63.08-1.04-1.37-.26-1.91-1.02-1.03.47-2.18.13-3.41.68.72.57-.34.17.06.9-.22.15-.32.18-.37.15,0,0-.01,0-.02,0h0c-.33-.03-.66-.02-1-.02-.31-.1.16-.3.04-.45-.62.28-.43-.18-.94-.1.24.2.04.49-.35.62h.67c-.49.87-1.09-.07-1.54.9,0-.14.03-.26.05-.4-.17.21-.45.57-.74.94-.25.39-.43.84-.29,1.22-.12.02-.37-.01-.31-.23-.38.47-.56,1.14-.68,1.75-.11.62-.21,1.17-.5,1.56l-.17-.14c0,.23.28.45.02.67-.08-.03-.18-.12-.21-.03.05.13.27.62.11.89l-.19-.27c-.23.55-.07,1.01.09,1.41.18.39.43.69.5,1.1-.6,0-.79.76-.88,1.14h-.08c-.06,1.1.51,1.88.75,2.91-.64.65-.25,2.18-.61,3.21.11-.16.47.02.53.2-.12.24.42.66-.13.63v-.09c-.53.19-.38.68-.39,1.07l.72.06c-1.04,1.02.41,2.66-.52,3.22.18.24.18.55.36.79h-.38c-.09.67-.14,1.01-.04,1.85l-.28-.17c-.02.47,1.11.59,1.14,1.02l-.57.14c.02.83-.48,1.67.05,2.48-.08-.01-.25-.04-.27-.17-.01.39-.38,1.51.41,1.36-.51.01-.04.85.19,1.3l-.38-.07c.49.37.62.38.76.91-.05.12-.3.11-.21-.05-.19.42.36.32.16.83l-.24-.19c-.03.43.1.39.39.63.15.27-.09.81-.43.88.21.06.49.29.39.54-.13.04-.21-.06-.25-.1-.25.72.45,1.06.08,1.55-.12.01-.19.04-.22.08,0-.57.02-1.02.05-.98-.35,0-.41.46-.89.1.27.37.84.99.68,1.44-.03.02-.07.04-.12.06l-.04-.05c-.03.1,0,.2.06.28-.06.14-.1.23-.1.37-.29.06-.15.53-.16.76.38-.02.32.28.64,0-.03.04-.05-.04-.06-.19-.01-.03-.02-.07-.04-.1l.04.02c0-.15-.02-.35-.03-.57.2.18.36.37.15.62.25.11.5.24.62.31-.53.32-.81.92-1.14,1.01.22.7.16,1.64.88,2.08.1.21-.19.25-.3.34-.08-.12-.08-.28-.18-.34.2.44.15,1.32.68,1.34-.14.57-.51-.24-.3.5l-.17-.07c-.26.83.25,1.4.75,1.86.51.49,1,.86,1.03,1.83-.01-.13-.02-.2.04-.26.33.9,1.07,1.6,1.87,2.12.8.53,1.59.98,2.32,1.65.44.34.62.03.98-.09v.43c.21-.09.43-.21.63-.32.4-.08.66.23.99.48.32.27.72.47,1.22.15l-.12-.28c.36.08,1.04-.16.99.17.03-.05.1-.29.23-.15v.21s.8-.37.8-.37c.62.15-.09.85.81.89.33-.09.94-.63.82-.77-.13,0-.34-.13-.36-.35l.3-.11s0-.08.01-.12h.05c1.25-.01,2.43-.25,3.51-.68v.11s.04-.09.06-.13c.14-.06.28-.13.42-.19.02.08.02.16-.05.23.43.1.19-.3.59-.16.05.03.05.06.04.09l.21-.32c0,.14.25.32.02.35.73-.03.62-.89,1.05-.67l-.02.06c.43-.5.12-.46,0-.73.1-.08.2-.17.3-.26.23.11.45.23.69.33l-.22-.36c.07-.05.21-.16.31-.02.02-.44-.17-.09-.23-.41.59-.04.58-.98,1.18-.66-.17-.3-.44.18-.35-.3.67.3.17-.5.65-.65.26.28-.11.51.38.33-.41-.5.47-.64.52-1.01-.47-.21.1-.75.06-1.35.08.04.21-.2.35-.51.12-.32.25-.72.37-.98l.08.02c-.49-.15-.37-.67-.47-1.06.3.01.42.08.54.3v-.37c-.15-.08-.24-.19-.3-.41l.37.08c-.02-.46-.45-.93-.2-1.52-.24-.02-.59.2-.88.15v-.31c.12,0,.22.04.26.13-.02-.05-.16-.19-.08-.3l.32.25c.14-.27-.27-.14-.24-.36.27,0,.19-.16.4-.13.03.06-.11.19,0,.27.05-.24.2-.54.4-.64-.15.02-.36,0-.4-.18-.02-.46.32-.16.46-.43-.19-.11,0-.41-.4-.41,0-.14.19-.16.3-.22-.18-.24-.06-1.12-.49-.84l-.03.06s-.01-.02-.02-.04c-.41-.78.21-1.63.04-2.4h.13c-.16-.46-.1-1.03-.39-1.36,0-.14.24-.33.4-.27-.1-.35-.25-.39-.04-.91.24.35.21-.12.17.36.11-.46.33-.57-.04-1.06.34.17.43-.35.32-.57l-.24.32c-.05-.25-.02-.46,0-.68l.45.11c.54-.95-.95-1.69-.04-2.42-.32-.25-.22.51-.59.29.06-.43.7-.89.7-1.03.25-.6-.66-.55-.5-1.17-.16.08-.59.16-.74-.3.05-.43.67-.54.8-.27.01.1-.04.15-.09.15.06.14.13.32.3.15l-.16-.06c.16-.22.14-.81.41-.68-.16-.33-.27-.14-.35.11.23-.56,0-.87.15-1.44-.09.09-.28.18-.28.09.19-.84-.31-.37-.38-.94.24-.33.59.11.38-.46.16-.35.43-.08.56.06-.32-.52.2-.98.25-1.28l.13.27Zm-24.94,16.87c-.06-.15.02-.2.1-.22,0,.07.02.16.05.27l.05.02c-.07-.01-.14-.03-.19-.06Zm18.62,11.24s-.03-.03-.05-.04c.04-.02.08-.05.12-.07-.03.04-.04.07-.08.11Zm-6.21-3.41h-.05c-3.47,0-6.31-2.81-6.34-6.29-.02-1.69.63-3.29,1.82-4.5,1.19-1.21,2.77-1.88,4.46-1.9,1.68,0,3.29.63,4.5,1.82,1.21,1.19,1.88,2.77,1.9,4.46.03,3.5-2.79,6.36-6.29,6.39Zm7.6-14.75c-.46.15-1.2.32-2.14.33-.02,0-.04,0-.07,0-.92,0-1.86-.16-2.78-.49-.93-.33-1.89-.35-2.89-.34-1.75.01-2.94.43-3.16.54-.28.1-1.2.37-2.41.38-.02,0-.05,0-.07,0-.66,0-1.31-.08-1.92-.24-.21-.06-.36-.25-.37-.47v-1.71c-.02-.15.05-.29.16-.38.11-.09.26-.13.4-.1.67.14,1.44.19,2.17.15.15,0,.27-.12.27-.25l-.04-4.55c0-.06-.03-.12-.08-.17-.05-.05-.12-.09-.21-.07-.17,0-.31.02-.47.01-.66,0-1.3-.08-1.91-.24-.21-.06-.36-.25-.37-.47v-1.71c-.01-.15.05-.29.17-.38.11-.09.25-.13.4-.1.57.12,1.14.19,1.76.17,1.44-.01,2.5-.37,2.61-.41.1-.06,1.14-.45,2.72-.5h0s.2,0,.2,0c.01,0,.02,0,.03,0h.25s0,0,0,0c.78,0,1.6.02,2.41.3,1.66.58,3.37.68,4.95.29.14-.04.3,0,.42.09.12.09.19.23.19.38v1.7c.02.21-.12.4-.33.47-.54.17-1.43.37-2.55.32-.13,0-.19.04-.23.08-.05.05-.08.11-.08.17l.04,4.55c0,.13.12.23.27.24.81.03,1.58-.04,2.33-.23.14-.04.3,0,.42.09.12.09.19.23.19.38v1.7c.02.21-.12.4-.32.47Zm.34-14.53c-.08.77-.58,1.28-1.28,1.28h-.64s-.04,0-.05,0c-3.22,0-5.25-2.38-6.28-4.05-.96,1.7-2.89,4.13-6.16,4.16h-.68s0,0-.01,0c-.67,0-1.17-.47-1.28-1.2l-.05-5.59c0-.33.26-.6.59-.6h1.47c.13-.02.31.05.42.16.11.11.18.26.18.42l.03,3.77s.02.09.06.11c.04.02.09.03.13.01.1-.04,2.51-1.07,3.46-3.52l.04-.09s.18-.34.24-.92c.07-.38.1-.75.09-1.12l-.03-3.2c0-.33.26-.6.59-.6l1.72-.02h0c.33,0,.59.26.6.59l.03,3.2c0,.36.04.72.1,1.05.13.58.34,1.13.34,1.14,1.01,2.38,3.39,3.35,3.49,3.39.05.02.09.01.13-.01.04-.02.06-.07.06-.11l-.03-3.77c0-.33.26-.6.59-.6h1.47s0-.01,0-.01c.33,0,.59.26.6.59l.05,5.48v.05Z"/>
  </g>
</svg>