<?xml version="1.0" encoding="UTF-8"?>
<svg id="_레이어_1" data-name="레이어 1" xmlns="http://www.w3.org/2000/svg" viewBox="0 0 508.83 109.72">
  <defs>
    <style>
      .cls-1 {
        fill: #d0df00;
      }
    </style>
  </defs>
  <path class="cls-1" d="m424.04,75.21c-1.19,0-2.16.97-2.16,2.16v30.2c0,1.19.97,2.16,2.16,2.16h82.63c1.19,0,2.16-.97,2.16-2.16v-14.91c0-1.19-.97-2.16-2.16-2.16h-61.1c-1.19,0-2.16-.97-2.16-2.16v-11.12c0-1.11-.9-2.01-2.01-2.01h-17.37Z"/>
  <path class="cls-1" d="m316.64,18.58h-19.58c-1.03,0-1.87.84-1.87,1.87v24.33h-1.71c-1.19,0-2.16-.97-2.16-2.16v-20.16h0v-1.72c0-1.19-.97-2.16-2.16-2.16h-24.83c-1.19,0-2.16.97-2.16,2.16v1.72c0,1.19.97,2.16,2.16,2.16h3.38v82.95c0,1.19.97,2.16,2.16,2.16h19.29c1.19,0,2.16-.97,2.16-2.16v-29.29c0-1.19.97-2.16,2.16-2.16h1.71v31.45c0,1.19.97,2.16,2.16,2.16h19.29c1.19,0,2.16-.97,2.16-2.16V20.73c0-1.19-.97-2.16-2.16-2.16Z"/>
  <path class="cls-1" d="m506.68,17h-24.83c-1.19,0-2.16.97-2.16,2.16v1.72c0,1.19.97,2.16,2.16,2.16h3.38v61.3c0,1.19.97,2.16,2.16,2.16h19.29c1.19,0,2.16-.97,2.16-2.16V19.16c0-1.19-.97-2.16-2.16-2.16Z"/>
  <path class="cls-1" d="m471.43,49.51h.04l7.31-26.08c.45-1.39-.59-2.82-2.05-2.82h-52.04c-1.19,0-2.16.97-2.16,2.16v20.59c0,1.19.97,2.16,2.16,2.16h9.37c1.5,0,2.54,1.5,2.02,2.9l-16.31,21.38c-.52,1.41.52,2.9,2.02,2.9h23.32c.9,0,2.14-7.46,2.46-8.3l.12-.33c.69-1.85,3.28-1.88,4.02-.06l.18.44c.33.81.68,17.02,1.56,17.02h23.92c1.5,0,2.54-1.49,2.03-2.89l-7.99-29.07Z"/>
  <path class="cls-1" d="m53.27,68.24h-29.59c-1.19,0-2.16-.97-2.16-2.16v-4.2c0-1.19.97-1.96,2.16-1.96h24.81c1.19,0,2.16-.97,2.16-2.16V22.76c0-1.19-.97-2.16-2.16-2.16H2.16c-1.19,0-2.16.97-2.16,2.16v79.62c0,1.19.97,2.16,2.16,2.16h51.12c1.19,0,2.16-.97,2.16-2.16v-31.99c0-1.19-.97-2.16-2.16-2.16Z"/>
  <path class="cls-1" d="m94.51,46.25h-9.48c-1.19,0-2.16-.97-2.16-2.16v-21.63s0,0,0,0v-1.72c0-1.19-.97-2.16-2.16-2.16h-24.83c-1.19,0-2.16.97-2.16,2.16v1.72c0,1.19.97,2.16,2.16,2.16h3.38v82.95c0,1.19.97,2.16,2.16,2.16h19.29c1.19,0,2.16-.97,2.16-2.16v-24.82c0-1.19.97-2.16,2.16-2.16h9.48c1.19,0,2.16-.97,2.16-2.16v-30.03c0-1.19-.97-2.16-2.16-2.16Z"/>
  <path class="cls-1" d="m154.56,68.24h-29.59c-1.19,0-2.16-.97-2.16-2.16v-4.2c0-1.19.97-1.96,2.16-1.96h24.81c1.19,0,2.16-.97,2.16-2.16V22.76c0-1.19-.97-2.16-2.16-2.16h-46.34c-1.19,0-2.16.97-2.16,2.16v79.62c0,1.19.97,2.16,2.16,2.16h51.12c1.19,0,2.16-.97,2.16-2.16v-31.99c0-1.19-.97-2.16-2.16-2.16Z"/>
  <path class="cls-1" d="m195.8,46.25h-9.48c-1.19,0-2.16-.97-2.16-2.16v-21.63h0v-1.72c0-1.19-.97-2.16-2.16-2.16h-24.83c-1.19,0-2.16.97-2.16,2.16v1.72c0,1.19.97,2.16,2.16,2.16h3.38v82.95c0,1.19.97,2.16,2.16,2.16h19.29c1.19,0,2.16-.97,2.16-2.16v-24.82c0-1.19.97-2.16,2.16-2.16h9.48c1.19,0,2.16-.97,2.16-2.16v-30.03c0-1.19-.97-2.16-2.16-2.16Z"/>
  <path class="cls-1" d="m258.98,26.61h-55.15c-1.19,0-2.16.97-2.16,2.16v1.72c0,1.19.97,2.16,2.16,2.16h3.38v69.92c0,1.19.97,2.16,2.16,2.16h49.61c1.19,0,2.16-.97,2.16-2.16V28.76c0-1.19-.97-2.16-2.16-2.16Zm-15.51,43.56h-6.8v15.85c0,1.51-1.22,2.74-2.74,2.74s-2.74-1.22-2.74-2.74v-15.85h-6.8c-1.51,0-2.74-1.22-2.74-2.74s1.22-2.74,2.74-2.74h6.8v-17.11c0-1.51,1.22-2.74,2.74-2.74s2.74,1.22,2.74,2.74v17.11h6.8c1.51,0,2.74,1.22,2.74,2.74s-1.22,2.74-2.74,2.74Z"/>
  <path class="cls-1" d="m411.98,18.58h-24.83c-1.19,0-2.16.97-2.16,2.16v1.72c0,1.19.97,2.16,2.16,2.16h3.38v22.48c0,1.19-.97,2.16-2.16,2.16h-9.48c-1.19,0-2.16.97-2.16,2.16v30.03c0,1.19.97,2.16,2.16,2.16h9.48c1.19,0,2.16.97,2.16,2.16v21.82c0,1.19.97,2.16,2.16,2.16h19.29c1.19,0,2.16-.97,2.16-2.16V24.95h0v-4.22c0-1.19-.97-2.16-2.16-2.16Z"/>
  <path class="cls-1" d="m364.92,103.39c-.28,1.58-1.66,2.72-3.26,2.72h-31.49c-1.5,0-2.54-1.5-2.02-2.9l13.25-34.81c.52-1.41-.52-2.9-2.02-2.9h-9.37c-1.19,0-2.16-.97-2.16-2.16V24.34c0-1.19.97-2.16,2.16-2.16h47.92c1.46,0,2.5,1.43,2.05,2.82l-15.05,78.39Z"/>
  <path class="cls-1" d="m227.76,16.93c.04,2.22,1.45,4.19,3.56,4.94.59.21,1.19.31,1.79.31,1.61,0,3.17-.73,4.21-2.05l6.65-10.79h264.87V0H242.02c-1.82,0-3.51.82-4.63,2.26l-1.05,1.65c-.28-.8-.74-1.54-1.34-2.15-1.1-1.12-2.63-1.76-4.19-1.76H0v9.34h227.47l.29,7.59Z"/>
</svg>