<?xml version="1.0" encoding="UTF-8"?>
<svg id="_레이어_1" data-name="레이어 1" xmlns="http://www.w3.org/2000/svg" viewBox="0 0 631.2 379.68">
  <defs>
    <style>
      .cls-1 {
        fill: #002bff;
        stroke-width: 0px;
      }
    </style>
  </defs>
  <g>
    <path class="cls-1" d="m74.3,0c16.56,0,31.29,3.38,44.2,10.14,12.91,6.76,22.93,16.25,30.07,28.48,7.14,12.23,10.71,25.97,10.71,41.24s-3.59,29.37-10.76,41.41c-7.18,12.04-17.37,21.36-30.59,27.97-13.21,6.61-28.36,9.91-45.45,9.91H7.66V0h66.64Zm-3.19,135.1c17.01,0,30.66-5.11,40.95-15.32,10.29-10.21,15.44-23.6,15.44-40.15s-5.18-30.72-15.55-40.67c-10.37-9.95-24.32-14.92-41.86-14.92h-31.67v111.07h32.69Z"/>
    <path class="cls-1" d="m245.3,0l70.28,159.14h-32.47l-16.52-38.73h-70.74l-15.38,38.73h-32.24L213.86,0h31.44Zm-40.1,97.05h51.38l-26.88-62.99-24.49,62.99Z"/>
    <path class="cls-1" d="m386.91,0c16.56,0,31.29,3.38,44.2,10.14,12.91,6.76,22.93,16.25,30.07,28.48,7.14,12.23,10.71,25.97,10.71,41.24s-3.59,29.37-10.76,41.41c-7.18,12.04-17.37,21.36-30.59,27.97-13.21,6.61-28.36,9.91-45.45,9.91h-64.82V0h66.64Zm-3.19,135.1c17.01,0,30.66-5.11,40.95-15.32,10.29-10.21,15.44-23.6,15.44-40.15s-5.18-30.72-15.55-40.67c-10.37-9.95-24.32-14.92-41.86-14.92h-31.67v111.07h32.69Z"/>
    <path class="cls-1" d="m553.25,0l70.28,159.14h-32.47l-16.52-38.73h-70.74l-15.38,38.73h-32.24L521.81,0h31.44Zm-40.1,97.05h51.38l-26.88-62.99-24.49,62.99Z"/>
  </g>
  <path class="cls-1" d="m572.33,204.32h-26.88s-24.31-48.99-24.31-48.99h26.88s24.31,48.99,24.31,48.99Z"/>
  <g>
    <path class="cls-1" d="m27.68,218.49l52.29,62.77,52.29-62.77h27.45v159.14h-30.76v-111.75h-.91l-46.02,56.05h-4.33l-46.02-56.05h-.91v111.75H0v-159.14h27.68Z"/>
    <path class="cls-1" d="m266.11,218.49l70.29,159.14h-32.47l-16.52-38.73h-70.74l-15.38,38.73h-32.24l65.61-159.14h31.44Zm-40.1,97.05h51.38l-26.88-62.99-24.49,62.99Z"/>
    <path class="cls-1" d="m412.91,216.44c19.59,0,39.03,4.37,58.32,13.1v28.14c-19.29-9.8-38.28-14.69-56.96-14.69-11.62,0-21.95,2.32-30.98,6.95-9.04,4.63-16.04,11.3-21.02,19.99-4.98,8.7-7.46,18.4-7.46,29.1,0,16.25,5.41,29.33,16.23,39.24,10.82,9.91,25.08,14.87,42.77,14.87,4.86,0,9.51-.42,13.95-1.25,4.44-.84,9.74-2.43,15.89-4.78v-26.43h-26.31v-24.04h57.07v65.62c-7.82,5.47-17.22,9.74-28.19,12.81-10.97,3.08-22.38,4.61-34.23,4.61-16.79,0-31.99-3.45-45.62-10.37-13.63-6.91-24.26-16.59-31.9-29.05-7.63-12.45-11.45-26.35-11.45-41.69s3.85-29.66,11.56-42.26c7.71-12.61,18.45-22.4,32.24-29.39,13.78-6.99,29.14-10.48,46.08-10.48Z"/>
    <path class="cls-1" d="m620.01,218.49l-92.73,135.1h103.91v24.04h-156.77l92.61-135.1h-87.03v-24.04h140Z"/>
  </g>
</svg>