<?xml version="1.0" encoding="UTF-8"?>
<svg id="_레이어_1" data-name="레이어 1" xmlns="http://www.w3.org/2000/svg" viewBox="0 0 704.23 113.8">
  <defs>
    <style>
      .cls-1 {
        fill: #d0df00;
      }
    </style>
  </defs>
  <path class="cls-1" d="m619.44,75.21c-1.19,0-2.16.97-2.16,2.16v30.2c0,1.19.97,2.16,2.16,2.16h82.63c1.19,0,2.16-.97,2.16-2.16v-14.91c0-1.19-.97-2.16-2.16-2.16h-61.1c-1.19,0-2.16-.97-2.16-2.16v-11.12c0-1.11-.9-2.01-2.01-2.01h-17.37Z"/>
  <path class="cls-1" d="m512.03,18.58h-19.58c-1.03,0-1.87.84-1.87,1.87v24.33h-1.71c-1.19,0-2.16-.97-2.16-2.16v-20.16h0v-1.72c0-1.19-.97-2.16-2.16-2.16h-24.83c-1.19,0-2.16.97-2.16,2.16v1.72c0,1.19.97,2.16,2.16,2.16h3.38v82.95c0,1.19.97,2.16,2.16,2.16h19.29c1.19,0,2.16-.97,2.16-2.16v-29.29c0-1.19.97-2.16,2.16-2.16h1.71v31.45c0,1.19.97,2.16,2.16,2.16h19.29c1.19,0,2.16-.97,2.16-2.16V20.73c0-1.19-.97-2.16-2.16-2.16Z"/>
  <path class="cls-1" d="m702.07,17h-24.83c-1.19,0-2.16.97-2.16,2.16v1.72c0,1.19.97,2.16,2.16,2.16h3.38v61.3c0,1.19.97,2.16,2.16,2.16h19.29c1.19,0,2.16-.97,2.16-2.16V19.16c0-1.19-.97-2.16-2.16-2.16Z"/>
  <path class="cls-1" d="m666.82,49.51h.04l7.31-26.08c.45-1.39-.59-2.82-2.05-2.82h-52.04c-1.19,0-2.16.97-2.16,2.16v20.59c0,1.19.97,2.16,2.16,2.16h9.37c1.5,0,2.54,1.5,2.02,2.9l-16.31,21.38c-.52,1.41.52,2.9,2.02,2.9h23.32c.9,0,2.14-7.46,2.46-8.3l.12-.33c.69-1.85,3.28-1.88,4.02-.06l.18.44c.33.81.68,17.02,1.56,17.02h23.92c1.5,0,2.54-1.49,2.03-2.89l-7.99-29.07Z"/>
  <path class="cls-1" d="m454.37,26.61h-55.15c-1.19,0-2.16.97-2.16,2.16v1.72c0,1.19.97,2.16,2.16,2.16h3.38v69.92c0,1.19.97,2.16,2.16,2.16h49.61c1.19,0,2.16-.97,2.16-2.16V28.76c0-1.19-.97-2.16-2.16-2.16Zm-15.51,43.56h-6.8v15.85c0,1.51-1.22,2.74-2.74,2.74s-2.74-1.22-2.74-2.74v-15.85h-6.8c-1.51,0-2.74-1.22-2.74-2.74s1.22-2.74,2.74-2.74h6.8v-17.11c0-1.51,1.22-2.74,2.74-2.74s2.74,1.22,2.74,2.74v17.11h6.8c1.51,0,2.74,1.22,2.74,2.74s-1.22,2.74-2.74,2.74Z"/>
  <path class="cls-1" d="m607.37,18.58h-24.83c-1.19,0-2.16.97-2.16,2.16v1.72c0,1.19.97,2.16,2.16,2.16h3.38v22.48c0,1.19-.97,2.16-2.16,2.16h-9.48c-1.19,0-2.16.97-2.16,2.16v30.03c0,1.19.97,2.16,2.16,2.16h9.48c1.19,0,2.16.97,2.16,2.16v21.82c0,1.19.97,2.16,2.16,2.16h19.29c1.19,0,2.16-.97,2.16-2.16V24.95h0v-4.22c0-1.19-.97-2.16-2.16-2.16Z"/>
  <path class="cls-1" d="m560.31,103.39c-.28,1.58-1.66,2.72-3.26,2.72h-31.49c-1.5,0-2.54-1.5-2.02-2.9l13.25-34.81c.52-1.41-.52-2.9-2.02-2.9h-9.37c-1.19,0-2.16-.97-2.16-2.16V24.34c0-1.19.97-2.16,2.16-2.16h47.92c1.46,0,2.5,1.43,2.05,2.82l-15.05,78.39Z"/>
  <path class="cls-1" d="m423.16,16.93c.04,2.22,1.45,4.19,3.56,4.94.59.21,1.19.31,1.79.31,1.61,0,3.17-.73,4.21-2.05l6.65-10.79h264.87V0h-266.82c-1.82,0-3.51.82-4.63,2.26l-1.05,1.65c-.28-.8-.74-1.54-1.34-2.15-1.1-1.12-2.63-1.76-4.19-1.76H0v9.34h422.86l.29,7.59Z"/>
  <g>
    <path class="cls-1" d="m53.23,69.42h-29.56c-1.19,0-2.16-.96-2.16-2.16v-4.2c0-1.19.96-1.95,2.16-1.95h24.79c1.19,0,2.16-.96,2.16-2.16V23.98c0-1.19-.96-2.16-2.16-2.16H2.16c-1.19,0-2.16.96-2.16,2.16v79.56c0,1.19.97,2.16,2.16,2.16h51.08c1.19,0,2.16-.96,2.16-2.16v-31.96c0-1.19-.96-2.16-2.16-2.16Z"/>
    <path class="cls-1" d="m96.59,49.6c0-1.19-.96-2.16-2.16-2.16h-9.48c-1.19,0-2.16-.96-2.16-2.16v-21.62h0v-1.72c0-1.19-.96-2.16-2.16-2.16h-24.81c-1.19,0-2.16.96-2.16,2.16v1.72c0,1.19.96,2.16,2.16,2.16h3.38v82.89c0,1.19.96,2.16,2.16,2.16h19.28c1.19,0,2.16-.96,2.16-2.16v-24.8c0-1.19.96-2.16,2.16-2.16h9.48c1.19,0,2.16-.96,2.16-2.16v-30.01Z"/>
    <path class="cls-1" d="m255.53,69.42h-29.56c-1.19,0-2.16-.96-2.16-2.16v-4.2c0-1.19.96-1.95,2.16-1.95h24.79c1.19,0,2.16-.96,2.16-2.16V23.98c0-1.19-.96-2.16-2.16-2.16h-46.3c-1.19,0-2.16.96-2.16,2.16v79.56c0,1.19.96,2.16,2.16,2.16h51.08c1.19,0,2.16-.96,2.16-2.16v-31.96c0-1.19-.97-2.16-2.16-2.16Z"/>
    <path class="cls-1" d="m296.74,47.45h-9.48c-1.19,0-2.16-.96-2.16-2.16v-21.61s0,0,0,0v-1.72c0-1.19-.96-2.16-2.16-2.16h-24.81c-1.19,0-2.16.96-2.16,2.16v1.72c0,1.19.97,2.16,2.16,2.16h3.38v82.89c0,1.19.96,2.16,2.16,2.16h19.28c1.19,0,2.16-.96,2.16-2.16v-24.8c0-1.19.97-2.16,2.16-2.16h9.48c1.19,0,2.16-.96,2.16-2.16v-30.01c0-1.19-.97-2.16-2.16-2.16Z"/>
    <g>
      <path class="cls-1" d="m143.4,65.11h.04l7.31-40.47c.45-1.39-.59-2.82-2.05-2.82h-47.53c-1.19,0-2.16.96-2.16,2.16v38.98c0,1.19.97,2.16,2.16,2.16h9.37c1.5,0,2.54,1.49,2.02,2.9l-16.3,34.78c-.52,1.41.52,2.9,2.02,2.9h22.84c.9,0,2.14-7.45,2.46-8.3l.12-.33c.68-1.84,3.28-1.88,4.02-.06l.18.44c.33.81.68,8.24,1.56,8.24h19.91c1.5,0,2.54-1.49,2.03-2.89l-7.99-37.69Z"/>
      <path class="cls-1" d="m196.46,19.8h-24.81c-1.19,0-2.16.96-2.16,2.16v1.72c0,1.19.96,2.16,2.16,2.16h6.08v20.19c0,.79-.64,1.42-1.42,1.42h-.12c-.79,0-1.42-.64-1.42-1.42v-15.38c0-1.19-.96-2.16-2.16-2.16h-16.58c-1.19,0-2.16.96-2.16,2.16v75.37c0,1.19.96,2.16,2.16,2.16h16.58c1.19,0,2.16-.96,2.16-2.16v-22.83c0-.79.64-1.42,1.42-1.42h.12c.79,0,1.42.64,1.42,1.42v25.53c0,1.19.96,2.16,2.16,2.16h16.58c1.19,0,2.16-.96,2.16-2.16V21.96c0-1.19-.96-2.16-2.16-2.16Z"/>
    </g>
    <g>
      <path class="cls-1" d="m311.39,54.85h78.68c1.19,0,2.16-.96,2.16-2.16v-18.98c0-1.19-.97-2.16-2.16-2.16h-45.18c-1.19,0-2.16-.96-2.16-2.16v-7.14c0-1.19-.96-2.16-2.16-2.16h-35.99c-1.19,0-2.16.96-2.16,2.16v1.72c0,1.19.97,2.16,2.16,2.16h4.65v26.56c0,1.19.96,2.16,2.16,2.16Z"/>
      <rect class="cls-1" x="301.61" y="57.93" width="95.46" height="19.55" rx="2.16" ry="2.16"/>
      <path class="cls-1" d="m392.29,89.81c-1.67-2.03-4.15-3.75-7.66-5.18-3.58-1.45-8.23-2.49-13.95-3.32-5.84-.73-13-1.14-21.34-1.14s-15.62.42-21.34,1.14c-5.84.83-10.49,1.87-14.07,3.32-3.58,1.45-6.2,3.22-7.63,5.29-1.55,2.08-2.27,4.46-2.27,7.06,0,2.91.72,5.29,2.27,7.37,1.43,2.08,3.82,3.84,7.39,5.29,3.46,1.45,8.11,2.39,13.95,3.11,5.72.62,13,1.04,21.7,1.04s15.74-.42,21.58-1.04c5.72-.73,10.37-1.66,13.95-3.11,3.46-1.45,5.96-3.22,7.51-5.29,1.43-2.08,2.27-4.46,2.27-7.37,0-2.54-.8-4.89-2.18-6.94-.06-.08-.12-.16-.18-.24Zm-33.75,11.22h-5.86v1.87c0,1.84-1.5,3.34-3.34,3.34s-3.34-1.5-3.34-3.34v-1.87h-5.86c-1.84,0-3.34-1.5-3.34-3.34s1.5-3.34,3.34-3.34h5.86v-1.87c0-1.84,1.5-3.34,3.34-3.34s3.34,1.5,3.34,3.34v1.87h5.86c1.84,0,3.34,1.5,3.34,3.34s-1.5,3.34-3.34,3.34Z"/>
    </g>
  </g>
</svg>