<?xml version="1.0" encoding="UTF-8"?>
<svg id="_레이어_1" data-name="레이어 1" xmlns="http://www.w3.org/2000/svg" viewBox="0 0 581.26 97.99">
  <defs>
    <style>
      .cls-1 {
        fill: #352f2d;
      }
    </style>
  </defs>
  <path class="cls-1" d="m498.75,16.93c.04,2.22,1.45,4.19,3.56,4.94.59.21,1.19.31,1.79.31,1.61,0,3.17-.73,4.21-2.05l6.65-10.79h66.31V0h-68.26c-1.82,0-3.51.82-4.63,2.26l-1.05,1.65c-.28-.8-.74-1.54-1.34-2.15-1.1-1.12-2.63-1.76-4.19-1.76H0v9.34h498.46l.29,7.59Z"/>
  <path class="cls-1" d="m45.24,60.27h-25.13c-1.01,0-1.83-.82-1.83-1.83v-3.57c0-1.01.82-1.66,1.83-1.66h21.07c1.01,0,1.83-.82,1.83-1.83v-29.73c0-1.01-.82-1.83-1.83-1.83H1.83c-1.01,0-1.83.82-1.83,1.83v67.62c0,1.01.82,1.83,1.83,1.83h43.41c1.01,0,1.83-.82,1.83-1.83v-27.16c0-1.01-.82-1.83-1.83-1.83Z"/>
  <path class="cls-1" d="m82.09,43.43c0-1.01-.82-1.83-1.83-1.83h-8.05c-1.01,0-1.83-.82-1.83-1.83v-18.37h0v-1.46c0-1.01-.82-1.83-1.83-1.83h-21.08c-1.01,0-1.83.82-1.83,1.83v1.46c0,1.01.82,1.83,1.83,1.83h2.87v70.44c0,1.01.82,1.83,1.83,1.83h16.38c1.01,0,1.83-.82,1.83-1.83v-21.08c0-1.01.82-1.83,1.83-1.83h8.05c1.01,0,1.83-.82,1.83-1.83v-25.5Z"/>
  <path class="cls-1" d="m217.17,60.27h-25.13c-1.01,0-1.83-.82-1.83-1.83v-3.57c0-1.01.82-1.66,1.83-1.66h21.07c1.01,0,1.83-.82,1.83-1.83v-29.73c0-1.01-.82-1.83-1.83-1.83h-39.35c-1.01,0-1.83.82-1.83,1.83v67.62c0,1.01.82,1.83,1.83,1.83h43.41c1.01,0,1.83-.82,1.83-1.83v-27.16c0-1.01-.82-1.83-1.83-1.83Z"/>
  <path class="cls-1" d="m252.19,41.6h-8.05c-1.01,0-1.83-.82-1.83-1.83v-18.37s0,0,0,0v-1.46c0-1.01-.82-1.83-1.83-1.83h-21.08c-1.01,0-1.83.82-1.83,1.83v1.46c0,1.01.82,1.83,1.83,1.83h2.87v70.44c0,1.01.82,1.83,1.83,1.83h16.38c1.01,0,1.83-.82,1.83-1.83v-21.08c0-1.01.82-1.83,1.83-1.83h8.05c1.01,0,1.83-.82,1.83-1.83v-25.5c0-1.01-.82-1.83-1.83-1.83Z"/>
  <g>
    <path class="cls-1" d="m121.87,56.61h.04l6.21-34.39c.38-1.18-.5-2.39-1.74-2.39h-40.4c-1.01,0-1.83.82-1.83,1.83v33.12c0,1.01.82,1.83,1.83,1.83h7.96c1.28,0,2.16,1.27,1.72,2.47l-13.85,29.56c-.44,1.2.44,2.47,1.72,2.47h19.41c.77,0,1.82-6.33,2.09-7.05l.1-.28c.58-1.57,2.79-1.6,3.42-.05l.15.38c.28.69.58,7,1.33,7h16.92c1.27,0,2.16-1.26,1.72-2.46l-6.79-32.03Z"/>
    <path class="cls-1" d="m166.96,18.1h-21.08c-1.01,0-1.83.82-1.83,1.83v1.46c0,1.01.82,1.83,1.83,1.83h5.16v17.16c0,.67-.54,1.21-1.21,1.21h-.1c-.67,0-1.21-.54-1.21-1.21v-13.07c0-1.01-.82-1.83-1.83-1.83h-14.09c-1.01,0-1.83.82-1.83,1.83v64.05c0,1.01.82,1.83,1.83,1.83h14.09c1.01,0,1.83-.82,1.83-1.83v-19.4c0-.67.54-1.21,1.21-1.21h.1c.67,0,1.21.54,1.21,1.21v21.7c0,1.01.82,1.83,1.83,1.83h14.09c1.01,0,1.83-.82,1.83-1.83V19.93c0-1.01-.82-1.83-1.83-1.83Z"/>
  </g>
  <g>
    <path class="cls-1" d="m264.64,47.88h66.87c1.01,0,1.83-.82,1.83-1.83v-16.13c0-1.01-.82-1.83-1.83-1.83h-38.4c-1.01,0-1.83-.82-1.83-1.83v-6.07c0-1.01-.82-1.83-1.83-1.83h-30.58c-1.01,0-1.83.82-1.83,1.83v1.46c0,1.01.82,1.83,1.83,1.83h3.95v22.57c0,1.01.82,1.83,1.83,1.83Z"/>
    <rect class="cls-1" x="256.33" y="50.5" width="81.13" height="16.61" rx="1.83" ry="1.83"/>
    <path class="cls-1" d="m333.39,77.6c-1.42-1.72-3.52-3.19-6.51-4.4-3.04-1.24-6.99-2.12-11.86-2.82-4.97-.62-11.05-.97-18.14-.97s-13.27.35-18.14.97c-4.97.71-8.92,1.59-11.96,2.82-3.04,1.24-5.27,2.73-6.49,4.5-1.32,1.76-1.93,3.79-1.93,6,0,2.47.61,4.5,1.93,6.26,1.22,1.76,3.24,3.26,6.28,4.5,2.94,1.24,6.89,2.03,11.86,2.65,4.86.53,11.05.88,18.44.88s13.38-.35,18.34-.88c4.86-.62,8.82-1.41,11.86-2.65,2.94-1.24,5.07-2.74,6.38-4.5,1.22-1.76,1.93-3.79,1.93-6.26,0-2.16-.68-4.15-1.85-5.89-.05-.07-.1-.14-.15-.2Zm-28.68,9.53h-4.98v1.59c0,1.57-1.27,2.84-2.84,2.84s-2.84-1.27-2.84-2.84v-1.59h-4.98c-1.57,0-2.84-1.27-2.84-2.84s1.27-2.84,2.84-2.84h4.98v-1.59c0-1.57,1.27-2.84,2.84-2.84s2.84,1.27,2.84,2.84v1.59h4.98c1.57,0,2.84,1.27,2.84,2.84s-1.27,2.84-2.84,2.84Z"/>
  </g>
  <g>
    <g>
      <path class="cls-1" d="m499.85,69.09h19.93c.65,0,1.26-.35,1.59-.91l18.39-25.32c.69-1.19,2.38-1.23,3.13-.07l15.88,25.46c.34.52.92.84,1.54.84h18.09c1.33,0,2.21-1.37,1.67-2.58l-21.24-47.49c-.29-.66-.95-1.08-1.67-1.08h-38.53c-1.01,0-1.83.82-1.83,1.83v1.46c0,1.01.82,1.83,1.83,1.83h3.62l-24,43.3c-.68,1.22.21,2.72,1.6,2.72Z"/>
      <path class="cls-1" d="m579.1,78.38h-20.54c-1.01,0-1.83-.82-1.83-1.83v-9.86c0-1.01-.82-1.83-1.83-1.83h-29.88c-1.01,0-1.83.82-1.83,1.83v1.46c0,1.01.82,1.83,1.83,1.83h2.31v6.57c0,1.01-.82,1.83-1.83,1.83h-25.87c-1.01,0-1.83.82-1.83,1.83v13.01c0,1.01.82,1.83,1.83,1.83h79.46c1.01,0,1.83-.82,1.83-1.83v-13.01c0-1.01-.82-1.83-1.83-1.83Z"/>
    </g>
    <g>
      <path class="cls-1" d="m455.68,53.61c0,1.01.82,1.83,1.83,1.83h33.39c1.01,0,1.83-.82,1.83-1.83V21.49c0-1.01-.82-1.83-1.83-1.83h-69.56c-1.01,0-1.83.82-1.83,1.83v22.7c0,1.01.82,1.83,1.83,1.83h32.51c1.01,0,1.83.82,1.83,1.83v5.75Z"/>
      <path class="cls-1" d="m495.01,58.06h-78.46c-1.01,0-1.83.82-1.83,1.83v13.01c0,1.01.82,1.83,1.83,1.83h21.21c1.01,0,1.83.82,1.83,1.83v13.36h-5.06c-1.01,0-1.83.82-1.83,1.83v1.46c0,1.01.82,1.83,1.83,1.83h34.17c1.01,0,1.83-.82,1.83-1.83v-16.66c0-1.01.82-1.83,1.83-1.83h22.65c1.01,0,1.83-.82,1.83-1.83v-13.01c0-1.01-.82-1.83-1.83-1.83Z"/>
    </g>
    <path class="cls-1" d="m411.3,77.01h-36.4c-1.01,0-1.83-.82-1.83-1.83v-5.46c0-1.01-.82-1.83-1.83-1.83h-30.4c-1.01,0-1.83.82-1.83,1.83v1.46c0,1.01.82,1.83,1.83,1.83h3.77v20.49c0,1.01.82,1.83,1.83,1.83h64.87c1.01,0,1.83-.82,1.83-1.83v-14.67c0-1.01-.82-1.83-1.83-1.83Z"/>
    <path class="cls-1" d="m411.3,17.94h-14.09c-1.01,0-1.83.82-1.83,1.83v.57c0,1.01-.82,1.83-1.83,1.83h-15.26v.16c-4.28-3.12-9.63-4.98-15.43-4.98-14.03,0-25.4,10.82-25.4,24.17s11.37,24.17,25.4,24.17c5,0,9.67-1.38,13.6-3.76.81-.49,1.84.08,1.84,1.02,0,.67.54,1.21,1.21,1.21h14.05c1.01,0,1.83.82,1.83,1.83v7.49c0,1.01.82,1.83,1.83,1.83h14.09c1.01,0,1.83-.82,1.83-1.83V19.77c0-1.01-.82-1.83-1.83-1.83Zm-44.4,24.78c1.18,1.18,1.18,3.09,0,4.27-1.18,1.18-3.09,1.18-4.27,0l-1.19-1.19-1.19,1.19c-1.18,1.18-3.09,1.18-4.27,0-1.18-1.18-1.18-3.09,0-4.27l1.19-1.19-1.19-1.19c-1.18-1.18-1.18-3.09,0-4.27,1.18-1.18,3.09-1.18,4.27,0l1.19,1.19,1.19-1.19c1.18-1.18,3.09-1.18,4.27,0,1.18,1.18,1.18,3.09,0,4.27l-1.19,1.19,1.19,1.19Zm28.48.65c0,1.01-.82,1.83-1.83,1.83h-3.54c-1.07,0-1.9-.91-1.82-1.98.04-.56.06-1.12.06-1.69,0-.13,0-.25-.01-.38h5.31c1.01,0,1.83.82,1.83,1.83v.38Z"/>
  </g>
</svg>