<?xml version="1.0" encoding="UTF-8"?>
<svg id="_레이어_1" data-name="레이어 1" xmlns="http://www.w3.org/2000/svg" viewBox="0 0 1634.6 207.19">
  <defs>
    <style>
      .cls-1 {
        fill: #002bff;
        stroke-width: 0px;
      }
    </style>
  </defs>
  <g>
    <path class="cls-1" d="m84.58,5.2c21.01,0,39.71,4.29,56.1,12.87,16.39,8.58,29.11,20.63,38.17,36.15,9.06,15.52,13.59,32.96,13.59,52.34s-4.55,37.28-13.66,52.56c-9.11,15.28-22.05,27.11-38.82,35.49-16.77,8.39-36,12.58-57.69,12.58H0V5.2h84.58Zm-4.05,171.48c21.59,0,38.92-6.48,51.98-19.45,13.06-12.96,19.59-29.95,19.59-50.96s-6.58-38.99-19.74-51.62c-13.16-12.63-30.87-18.94-53.13-18.94h-40.19v140.97h41.5Z"/>
    <path class="cls-1" d="m301.63,5.2l89.21,201.98h-41.21l-20.96-49.16h-89.79l-19.52,49.16h-40.92L261.72,5.2h39.9Zm-50.89,123.19h65.21l-34.12-79.95-31.09,79.95Z"/>
    <path class="cls-1" d="m481.36,5.2c21.01,0,39.71,4.29,56.1,12.87,16.39,8.58,29.11,20.63,38.17,36.15,9.06,15.52,13.59,32.96,13.59,52.34s-4.55,37.28-13.66,52.56c-9.11,15.28-22.05,27.11-38.82,35.49-16.77,8.39-36,12.58-57.69,12.58h-82.27V5.2h84.58Zm-4.05,171.48c21.59,0,38.92-6.48,51.98-19.45,13.06-12.96,19.59-29.95,19.59-50.96s-6.58-38.99-19.74-51.62c-13.16-12.63-30.87-18.94-53.13-18.94h-40.19v140.97h41.5Z"/>
    <path class="cls-1" d="m692.49,5.2l89.21,201.98h-41.21l-20.96-49.16h-89.79l-19.52,49.16h-40.92L652.58,5.2h39.9Zm-50.89,123.19h65.21l-34.12-79.95-31.09,79.95Z"/>
  </g>
  <path class="cls-1" d="m821.18,65.73v34.12s-62.18,30.86-62.18,30.86v-34.12s62.18-30.86,62.18-30.86Z"/>
  <g>
    <path class="cls-1" d="m868.6,2.6l66.36,79.67L1001.33,2.6h34.84v201.98h-39.04V62.75h-1.16l-58.41,71.13h-5.49l-58.41-71.13h-1.16v141.84h-39.04V2.6h35.13Z"/>
    <path class="cls-1" d="m1171.22,2.6l89.21,201.98h-41.21l-20.96-49.16h-89.79l-19.52,49.16h-40.92L1131.32,2.6h39.9Zm-50.89,123.19h65.21l-34.12-79.95-31.09,79.95Z"/>
    <path class="cls-1" d="m1357.55,0c24.87,0,49.54,5.54,74.03,16.63v35.71c-24.48-12.43-48.58-18.65-72.29-18.65-14.75,0-27.86,2.94-39.33,8.82-11.47,5.88-20.36,14.34-26.68,25.37-6.31,11.04-9.47,23.35-9.47,36.94,0,20.63,6.87,37.23,20.6,49.81,13.74,12.58,31.83,18.87,54.29,18.87,6.17,0,12.07-.53,17.71-1.59,5.64-1.06,12.36-3.08,20.17-6.07v-33.54h-33.4v-30.51h72.44v83.28c-9.93,6.94-21.86,12.36-35.78,16.27-13.93,3.9-28.41,5.86-43.45,5.86-21.3,0-40.61-4.38-57.91-13.16-17.3-8.77-30.8-21.06-40.48-36.87-9.69-15.81-14.53-33.45-14.53-52.92s4.89-37.64,14.67-53.64c9.78-16,23.42-28.43,40.92-37.3,17.5-8.87,36.99-13.3,58.48-13.3Z"/>
    <path class="cls-1" d="m1620.4,2.6l-117.69,171.48h131.89v30.51h-198.97l117.55-171.48h-110.46V2.6h177.69Z"/>
  </g>
</svg>